<?xml version="1.0" encoding="UTF-8" standalone="no"?>
<!-- Created with Inkscape (http://www.inkscape.org/) -->

<svg
   xmlns:a="http://ns.adobe.com/AdobeSVGViewerExtensions/3.0/"
   xmlns:dc="http://purl.org/dc/elements/1.1/"
   xmlns:cc="http://creativecommons.org/ns#"
   xmlns:rdf="http://www.w3.org/1999/02/22-rdf-syntax-ns#"
   xmlns:svg="http://www.w3.org/2000/svg"
   xmlns="http://www.w3.org/2000/svg"
   xmlns:sodipodi="http://sodipodi.sourceforge.net/DTD/sodipodi-0.dtd"
   xmlns:inkscape="http://www.inkscape.org/namespaces/inkscape"
   version="1.0"
   width="538.09198"
   height="261.67499"
   viewBox="0 0 538.092 261.675"
   id="Layer_1"
   xml:space="preserve"
   inkscape:version="0.48.4 r9939"
   sodipodi:docname="DNA_replication_es.svg"><metadata
   id="metadata293"><rdf:RDF><cc:Work
       rdf:about=""><dc:format>image/svg+xml</dc:format><dc:type
         rdf:resource="http://purl.org/dc/dcmitype/StillImage" /><dc:title></dc:title></cc:Work></rdf:RDF></metadata><sodipodi:namedview
   pagecolor="#ffffff"
   bordercolor="#666666"
   borderopacity="1"
   objecttolerance="10"
   gridtolerance="10"
   guidetolerance="10"
   inkscape:pageopacity="0"
   inkscape:pageshadow="2"
   inkscape:window-width="1024"
   inkscape:window-height="712"
   id="namedview291"
   showgrid="false"
   inkscape:zoom="1.661426"
   inkscape:cx="269.04599"
   inkscape:cy="130.83749"
   inkscape:window-x="-4"
   inkscape:window-y="-4"
   inkscape:window-maximized="1"
   inkscape:current-layer="Layer_1" /><defs
   id="defs859" />
<rect
   width="538.09198"
   height="261.67499"
   x="0"
   y="0"
   style="fill:#ffffff"
   id="rect3" />
<path
   d="M 157.491,184.072 C 153.963,186.309 158.342,186.685 159.871,186.766 C 161.367,186.845 164.462,187.507 167.615,181.936 C 171.298,175.429 181.389,158.063 181.389,158.063 C 181.389,158.063 189.022,145.649 201.636,146.604 C 201.636,146.604 191.85,139.509 178.113,152.081 C 169.719,159.764 164.827,179.423 157.491,184.072 z "
   style="fill:#8f0000;stroke:#000000;stroke-width:0.4876"
   id="path5" />
<path
   d="M 192.342,146.724 L 192.342,167.135 C 192.342,167.135 192.092,168.15 193.399,168.15 C 194.706,168.15 195.609,167.285 195.609,167.285 L 195.609,145.65 C 195.608,145.649 193.831,144.331 192.342,146.724 z "
   style="fill:#ffbf00;stroke:#000000;stroke-width:0.4876"
   id="path7" />
<path
   d="M 184.734,166.645 C 184.538,166.585 184.286,164.656 184.241,164.457 C 183.878,162.844 183.514,161.231 183.151,159.618 C 182.818,158.139 182.535,156.674 182.234,155.206 C 182.031,154.211 181.282,152.681 182.442,151.959 C 183.031,151.593 184.062,151.554 184.601,152.43 C 184.601,152.43 187.555,165.168 187.894,166.929 L 186.741,167.255 C 186.74,167.255 184.735,166.645 184.734,166.645 z "
   style="fill:#ffbf00;stroke:#000000;stroke-width:0.4876"
   id="path9" />
<path
   d="M 163.152,163.011 C 163.152,163.011 162.38,180.373 162.378,180.423 C 162.338,181.305 162.806,183 163.963,183.014 C 166.103,183.041 165.691,178.903 165.749,177.618 C 165.855,175.332 165.96,173.046 166.065,170.76 C 166.095,170.114 166.001,162.202 166.465,162.071 L 163.152,163.011 z "
   style="fill:#7dff00;stroke:#000000;stroke-width:0.4876"
   id="path11" />
<path
   d="M 134.064,174.981 C 134.637,175.627 135.861,175.693 138.058,174.797 C 141.303,173.475 143.189,167.784 144.821,164.965 C 146.277,162.452 147.734,159.939 149.193,157.428 C 149.193,157.428 156.826,145.013 169.44,145.969 C 169.44,145.969 159.654,138.874 145.917,151.446 C 142.383,154.681 140.032,159.109 137.85,163.307 C 136.973,164.996 132.242,172.926 134.064,174.981 z "
   style="fill:#8f0000;stroke:#000000;stroke-width:0.4876"
   id="path13" />
<path
   d="M 192.342,166.347 L 192.342,180.669 L 192.342,181.846 C 192.342,181.846 191.719,182.239 193.399,182.68 C 195.081,183.121 195.578,182.827 195.578,182.827 L 195.609,165.464 L 192.342,166.347 z "
   style="fill:#7dff00;stroke:#000000;stroke-width:0.442"
   id="path15" />
<path
   d="M 186.118,164.987 L 187.86,166.658 L 190.349,179.668 C 190.349,179.668 188.731,182.772 187.486,181.578 C 186.241,180.385 186.801,179.847 186.801,179.847 L 184.734,166.644 L 186.118,164.987 z "
   style="fill:#7dff00;stroke:#000000;stroke-width:0.4876"
   id="path17" />
<path
   d="M 163.868,146.354 L 163.118,163.187 C 163.118,163.187 162.831,164.014 164.137,164.067 C 165.443,164.12 166.376,163.443 166.376,163.443 L 167.17,145.601 C 167.171,145.602 165.444,144.442 163.868,146.354 z "
   style="fill:#ffbf00;stroke:#000000;stroke-width:0.44299999"
   id="path19" />
<path
   d="M 157.051,165.586 L 157.118,184.431 L 155.804,185.691 L 154.441,184.383 L 154.005,165.941 C 154.005,165.941 153.742,164.628 155.374,164.628 C 157.006,164.629 157.051,165.586 157.051,165.586 z "
   style="fill:#7dff00;stroke:#000000;stroke-width:0.4876"
   id="path21" />
<path
   d="M 153.508,149.469 C 153.508,149.469 153.01,147.559 154.628,147.201 C 156.247,146.843 156.247,148.275 156.247,148.275 L 157.119,167.016 L 155.563,168.508 L 154.007,167.016 L 153.508,149.469 z "
   style="fill:#ffbf00;stroke:#000000;stroke-width:0.44299999"
   id="path23" />
<path
   d="M 148.643,165.299 L 150.882,176.577 L 148.528,175.849 L 147.034,173.461 L 146.477,165.81 C 146.479,165.811 148.103,164.4 148.643,165.299 z "
   style="fill:#7dff00;stroke:#000000;stroke-width:0.4876"
   id="path25" />
<path
   d="M 175.831,155.96 C 176.793,155.464 177.886,156.15 177.81,157.615 C 177.653,160.629 174.773,162.913 174.061,165.804 C 173.877,166.553 172.436,164.476 172.382,164.271 C 172.08,163.107 172.473,162.444 172.987,161.396 C 173.749,159.845 174.114,158.128 175.078,156.667 C 175.299,156.332 175.56,156.099 175.831,155.96 z "
   style="fill:#ffbf00;stroke:#000000;stroke-width:0.44299999"
   id="path27" />
<path
   d="M 173.823,165.735 C 173.191,167.104 172.114,174.193 169.479,172.477 C 167.657,171.29 170.344,167.466 170.941,166.147 C 171.278,165.398 171.529,164.52 171.971,163.834 C 172.171,164.851 173.586,165.117 174.419,164.632 C 174.193,164.989 173.998,165.358 173.823,165.735 z "
   style="fill:#7dff00;stroke:#000000;stroke-width:0.4876"
   id="path29" />
<path
   d="M 135.748,152.74 C 134.928,153.558 134.611,155.062 135.291,157.276 C 137.912,165.804 143.276,174.803 148.198,182.255 C 148.2,182.258 151.353,187.03 154.505,188.303 C 154.505,188.303 159.483,187.348 162.304,188.303 C 162.304,188.303 164.832,186.786 168.039,181.19 C 168.039,181.19 165.126,185.598 162.304,185.598 C 159.483,185.598 154.919,181.062 154.919,179.629 C 152.002,173.941 149.084,168.253 146.166,162.565 C 144.9,160.097 143.762,157.492 142.341,155.108 C 140.526,152.064 137.271,151.221 135.748,152.74 z "
   style="fill:#ff0000;stroke:#000000;stroke-width:0.4876"
   id="path31" />
<path
   d="M 66.921,112.936 C 63.393,115.268 67.771,115.66 69.301,115.745 C 70.796,115.828 73.892,116.517 77.044,110.709 C 80.727,103.924 90.818,85.816 90.818,85.816 C 90.818,85.816 98.451,72.871 111.064,73.867 C 111.064,73.867 101.278,66.469 87.541,79.578 C 79.149,87.588 74.257,108.087 66.921,112.936 z "
   style="fill:#8f0000;stroke:#000000;stroke-width:0.49790001"
   id="path33" />
<path
   d="M 101.771,73.991 L 101.771,95.275 C 101.771,95.275 101.521,96.333 102.828,96.333 C 104.135,96.333 105.037,95.431 105.037,95.431 L 105.037,72.871 C 105.038,72.871 103.261,71.496 101.771,73.991 z "
   style="fill:#ffbf00;stroke:#000000;stroke-width:0.49790001"
   id="path35" />
<path
   d="M 94.164,94.763 C 93.968,94.7 93.716,92.689 93.671,92.482 C 93.307,90.8 92.944,89.118 92.58,87.437 C 92.247,85.895 91.965,84.366 91.663,82.836 C 91.46,81.799 90.711,80.204 91.871,79.451 C 92.46,79.068 93.491,79.029 94.03,79.942 C 94.03,79.942 96.984,93.224 97.323,95.06 L 96.169,95.4 C 96.17,95.399 94.166,94.763 94.164,94.763 z "
   style="fill:#ffbf00;stroke:#000000;stroke-width:0.49790001"
   id="path37" />
<path
   d="M 72.582,90.974 C 72.582,90.974 71.809,109.078 71.808,109.13 C 71.768,110.05 72.235,111.817 73.393,111.832 C 75.533,111.861 75.121,107.545 75.179,106.206 C 75.285,103.822 75.39,101.438 75.495,99.054 C 75.524,98.38 75.431,90.131 75.895,89.994 L 72.582,90.974 z "
   style="fill:#7dff00;stroke:#000000;stroke-width:0.49790001"
   id="path39" />
<path
   d="M 53.073,81.893 C 54.698,80.561 60.231,78.98 61.042,82.074 C 65.116,76.592 71.904,72.655 78.87,73.205 C 78.301,73.16 77.297,72.316 76.736,72.093 C 74.807,71.328 72.701,71.038 70.633,71.148 C 67.334,71.324 64.176,72.54 61.367,74.231 C 58.587,75.903 54.176,78.622 53.073,81.893 z "
   style="fill:#8f0000;stroke:#000000;stroke-width:0.49790001"
   id="path41" />
<path
   d="M 101.771,94.652 L 101.771,112.824 L 101.771,114.318 C 101.771,114.318 101.148,114.816 102.828,115.376 C 104.509,115.936 105.006,115.563 105.006,115.563 L 105.037,93.533 L 101.771,94.652 z "
   style="fill:#7dff00;stroke:#000000;stroke-width:0.49790001"
   id="path43" />
<path
   d="M 95.548,93.035 L 97.29,94.777 L 99.779,108.344 C 99.779,108.344 98.161,111.58 96.916,110.335 C 95.671,109.09 96.231,108.53 96.231,108.53 L 94.163,94.762 L 95.548,93.035 z "
   style="fill:#7dff00;stroke:#000000;stroke-width:0.49790001"
   id="path45" />
<path
   d="M 73.298,73.606 L 72.548,91.158 C 72.548,91.158 72.261,92.02 73.567,92.075 C 74.873,92.131 75.806,91.426 75.806,91.426 L 76.6,72.822 C 76.601,72.822 74.874,71.612 73.298,73.606 z "
   style="fill:#ffbf00;stroke:#000000;stroke-width:0.45230001"
   id="path47" />
<path
   d="M 66.48,93.66 L 66.547,113.31 L 65.234,114.623 L 63.871,113.26 L 63.435,94.03 C 63.435,94.03 63.173,92.661 64.804,92.661 C 66.437,92.661 66.48,93.66 66.48,93.66 z "
   style="fill:#7dff00;stroke:#000000;stroke-width:0.49790001"
   id="path49" />
<path
   d="M 62.938,76.854 C 62.938,76.854 62.44,74.862 64.058,74.489 C 65.677,74.115 65.677,75.61 65.677,75.61 L 66.549,95.151 L 64.993,96.707 L 63.437,95.151 L 62.938,76.854 z "
   style="fill:#ffbf00;stroke:#000000;stroke-width:0.45230001"
   id="path51" />
<path
   d="M 85.261,83.622 C 86.223,83.105 87.316,83.821 87.24,85.348 C 87.083,88.491 84.204,90.873 83.491,93.888 C 83.307,94.668 81.866,92.503 81.813,92.289 C 81.511,91.076 81.904,90.385 82.418,89.292 C 83.18,87.674 83.545,85.885 84.509,84.36 C 84.729,84.01 84.99,83.767 85.261,83.622 z "
   style="fill:#ffbf00;stroke:#000000;stroke-width:0.45230001"
   id="path53" />
<path
   d="M 83.253,93.815 C 82.621,95.242 81.543,102.634 78.908,100.844 C 77.086,99.607 79.774,95.618 80.37,94.244 C 80.708,93.462 80.959,92.547 81.401,91.832 C 81.601,92.892 83.016,93.169 83.848,92.664 C 83.623,93.037 83.428,93.421 83.253,93.815 z "
   style="fill:#7dff00;stroke:#000000;stroke-width:0.49790001"
   id="path55" />
<rect
   width="14.027"
   height="55.839001"
   x="155.283"
   y="64.810997"
   style="fill:#c9930a;stroke:#000000;stroke-width:0.4061"
   id="rect57" />
<ellipse
   cx="202.778"
   cy="116.536"
   rx="7.677"
   ry="11.949"
   style="fill:#0060b6;stroke:#000000;stroke-width:0.52079999"
   id="ellipse59" />
<path
   d="M 179.322,74.483 L 179.322,96.9 C 179.322,96.9 179.073,98.015 180.38,98.015 C 181.687,98.015 182.589,97.064 182.589,97.064 L 182.589,73.304 C 182.589,73.304 180.813,71.855 179.322,74.483 z "
   style="fill:#ffbf00;stroke:#000000;stroke-width:0.51090002"
   id="path61" />
<path
   d="M 169.489,74.404 L 169.489,97.362 C 169.489,97.362 169.24,98.503 170.547,98.503 C 171.854,98.503 172.756,97.53 172.756,97.53 L 172.756,73.196 C 172.756,73.196 170.979,71.713 169.489,74.404 z "
   style="fill:#ffbf00;stroke:#000000;stroke-width:0.51709998"
   id="path63" />
<path
   d="M 157.924,73.729 L 157.924,93.51 C 157.924,93.51 157.675,94.493 158.982,94.493 C 160.289,94.493 161.191,93.655 161.191,93.655 L 161.191,72.688 C 161.191,72.688 159.414,71.41 157.924,73.729 z "
   style="fill:#ffbf00;stroke:#000000;stroke-width:0.47999999"
   id="path65" />
<path
   d="M 197.255,74.016 L 197.255,89.932 C 197.255,89.932 197.006,90.723 198.314,90.723 C 199.621,90.723 200.523,90.048 200.523,90.048 L 200.523,73.178 C 200.522,73.178 198.745,72.15 197.255,74.016 z "
   style="fill:#ffbf00;stroke:#000000;stroke-width:0.4305"
   id="path67" />
<path
   d="M 187.796,73.844 L 187.796,90.683 C 187.796,90.683 187.547,91.52 188.854,91.52 C 190.161,91.52 191.064,90.807 191.064,90.807 L 191.064,72.958 C 191.063,72.958 189.286,71.87 187.796,73.844 z "
   style="fill:#ffbf00;stroke:#000000;stroke-width:0.44279999"
   id="path69" />
<linearGradient
   x1="298.94919"
   y1="62.247601"
   x2="298.50311"
   y2="88.268501"
   id="XMLID_8_"
   gradientUnits="userSpaceOnUse">
	<stop
   style="stop-color:#015353;stop-opacity:1"
   offset="0"
   id="stop72" />
	<stop
   style="stop-color:#014f4e;stop-opacity:1"
   offset="0.11"
   id="stop74" />
	<stop
   style="stop-color:#01443f;stop-opacity:1"
   offset="0.24339999"
   id="stop76" />
	<stop
   style="stop-color:#003327;stop-opacity:1"
   offset="0.38839999"
   id="stop78" />
	<stop
   style="stop-color:#002210;stop-opacity:1"
   offset="0.49439999"
   id="stop80" />
	<stop
   style="stop-color:#003429;stop-opacity:1"
   offset="0.67460001"
   id="stop82" />
	<stop
   style="stop-color:#015353;stop-opacity:1"
   offset="1"
   id="stop84" />
	<a:midPointStop
   offset="0"
   style="stop-color:#015353" />
	<a:midPointStop
   offset="0.6667"
   style="stop-color:#015353" />
	<a:midPointStop
   offset="0.4944"
   style="stop-color:#002210" />
	<a:midPointStop
   offset="0.4778"
   style="stop-color:#002210" />
	<a:midPointStop
   offset="1"
   style="stop-color:#015353" />
</linearGradient>
<path
   d="M 301.504,75.232 C 301.587,76.578 301.817,77.924 302.209,79.264 C 302.932,81.738 305.367,83.711 305.948,86.131 C 307.073,90.822 299.994,96.145 296.26,92.25 C 294.751,90.677 293.855,88.69 293.08,86.872 C 291.453,83.051 291.19,78.983 291.19,75 C 291.19,64.669 295.266,56.295 300.294,56.294 C 303.048,56.294 303.559,57.402 304.194,59.69 C 304.978,62.508 303.417,64.683 302.584,67.276 C 301.744,69.895 301.338,72.563 301.504,75.232 z "
   style="fill:url(#XMLID_8_)"
   id="path86" />
<path
   d="M 149.242,75.4 L 149.242,98.358 C 149.242,98.358 148.993,99.5 150.3,99.5 C 151.607,99.5 152.509,98.526 152.509,98.526 L 152.509,74.191 C 152.509,74.191 150.733,72.709 149.242,75.4 z "
   style="fill:#ffbf00;stroke:#000000;stroke-width:0.51709998"
   id="path88" />
<path
   d="M 139.659,75.009 L 139.659,93.809 C 139.659,93.809 139.41,94.743 140.717,94.743 C 142.024,94.743 142.926,93.946 142.926,93.946 L 142.926,74.02 C 142.926,74.02 141.148,72.805 139.659,75.009 z "
   style="fill:#ffbf00;stroke:#000000;stroke-width:0.46790001"
   id="path90" />
<rect
   width="18.587999"
   height="50.118"
   x="270.88699"
   y="138.47301"
   style="fill:#c9930a;stroke:#000000;stroke-width:0.44279999"
   id="rect92" />
<path
   d="M 206.142,112.725 L 205.662,119.023 L 226.627,118.896 C 225.784,117.62 225.6,113.901 226.544,112.725 L 206.142,112.725 z "
   style="fill:#bf0000;stroke:#000000;stroke-width:0.30509999"
   id="path94" />
<path
   d="M 273.448,102.389 L 273.448,113.413 L 273.448,114.319 C 273.448,114.319 272.825,114.621 274.506,114.96 C 276.187,115.3 276.685,115.073 276.685,115.073 L 276.715,101.71 L 273.448,102.389 z "
   style="fill:#7dff00;stroke:#000000;stroke-width:0.53380001"
   id="path96" />
<path
   d="M 237.707,112.89 L 236.98,119.188 L 273.092,119.061 C 271.815,117.785 271.535,114.066 272.967,112.89 L 237.707,112.89 z "
   style="fill:#bf0000;stroke:#000000;stroke-width:0.37560001"
   id="path98" />
<path
   d="M 344.759,185.168 C 344.763,185.166 350.682,181.507 350.682,181.507 L 345.879,180.812 L 317.874,180.812 L 243.194,180.812 C 235.726,180.812 228.259,180.812 220.792,180.812 C 215.584,180.812 210.376,180.812 205.168,180.812 C 203.473,180.812 201.562,180.563 199.884,180.812 C 198.304,181.046 197.303,181.698 195.597,181.57 C 193.629,181.423 191.819,180.208 189.788,180.65 C 193.53,187.627 208.392,185.167 215.055,185.167 C 225.894,185.167 236.733,185.167 247.571,185.167 C 271.377,185.167 295.181,185.167 318.986,185.167 C 325.23,185.167 331.473,185.167 337.717,185.167 C 339.164,185.168 343.472,185.963 344.759,185.168 z "
   style="fill:#bf0000;stroke:#000000;stroke-width:0.49790001"
   id="path100" />
<linearGradient
   x1="432.66211"
   y1="98.633797"
   x2="431.66641"
   y2="156.71809"
   id="XMLID_9_"
   gradientUnits="userSpaceOnUse">
	<stop
   style="stop-color:#006b33;stop-opacity:1"
   offset="0"
   id="stop103" />
	<stop
   style="stop-color:#00622f;stop-opacity:1"
   offset="0.0453"
   id="stop105" />
	<stop
   style="stop-color:#003f1e;stop-opacity:1"
   offset="0.23559999"
   id="stop107" />
	<stop
   style="stop-color:#002a14;stop-opacity:1"
   offset="0.39210001"
   id="stop109" />
	<stop
   style="stop-color:#002210;stop-opacity:1"
   offset="0.49439999"
   id="stop111" />
	<stop
   style="stop-color:#002813;stop-opacity:1"
   offset="0.59939998"
   id="stop113" />
	<stop
   style="stop-color:#00381a;stop-opacity:1"
   offset="0.73409998"
   id="stop115" />
	<stop
   style="stop-color:#005227;stop-opacity:1"
   offset="0.88440001"
   id="stop117" />
	<stop
   style="stop-color:#006b33;stop-opacity:1"
   offset="1"
   id="stop119" />
	<a:midPointStop
   offset="0"
   style="stop-color:#006B33" />
	<a:midPointStop
   offset="0.3854"
   style="stop-color:#006B33" />
	<a:midPointStop
   offset="0.4944"
   style="stop-color:#002210" />
	<a:midPointStop
   offset="0.6543"
   style="stop-color:#002210" />
	<a:midPointStop
   offset="1"
   style="stop-color:#006B33" />
</linearGradient>
<path
   d="M 433.271,128.06 C 433.304,129.166 433.345,130.27 433.389,131.373 C 433.654,137.979 432.454,148.013 437.357,153.23 C 439.965,156.006 443.214,159.793 441.99,164.018 C 440.333,169.742 433.046,169.976 430.007,165.75 C 427.478,162.231 425.975,157.792 424.676,153.726 C 421.947,145.184 421.505,136.089 421.505,127.185 C 421.505,104.089 428.342,85.367 436.773,85.365 C 444.022,85.364 443.724,91.542 441.18,96.6 C 440.657,97.638 439.987,99.24 439.093,100.013 C 437.925,101.025 436.782,100.35 435.904,101.065 C 434.473,102.23 434.525,105.454 434.251,107.128 C 433.121,114.038 433.059,121.069 433.271,128.06 z "
   style="fill:url(#XMLID_9_)"
   id="path121" />
<path
   d="M 361.955,141.954 L 373.681,155.158 L 374.645,156.244 C 374.645,156.244 374.501,157.019 376.119,156.31 C 377.737,155.601 377.868,154.999 377.868,154.999 L 363.676,138.971 L 361.955,141.954 z "
   style="fill:#7dff00;stroke:#000000;stroke-width:0.49079999"
   id="path123" />
<path
   d="M 359.651,154.029 L 365.689,160.826 L 366.185,161.385 C 366.185,161.385 365.885,161.985 367.327,161.079 C 368.769,160.172 369.018,159.702 369.018,159.702 L 361.722,151.44 L 359.651,154.029 z "
   style="fill:#7dff00;stroke:#000000;stroke-width:0.35210001"
   id="path125" />
<path
   d="M 352.289,160.546 L 358.54,167.584 L 359.053,168.163 C 359.053,168.163 358.759,168.768 360.208,167.87 C 361.657,166.971 361.9,166.495 361.9,166.495 L 354.347,157.942 L 352.289,160.546 z "
   style="fill:#7dff00;stroke:#000000;stroke-width:0.3583"
   id="path127" />
<path
   d="M 339.334,160.39 L 350.518,172.985 L 351.438,174.02 C 351.438,174.02 351.278,174.779 352.88,174.051 C 354.481,173.323 354.623,172.734 354.623,172.734 L 341.087,157.445 L 339.334,160.39 z "
   style="fill:#7dff00;stroke:#000000;stroke-width:0.47929999"
   id="path129" />
<path
   d="M 339.636,172.627 L 343.231,180.756 L 343.527,181.424 C 343.527,181.424 343.056,181.899 344.704,181.469 C 346.351,181.041 346.733,180.672 346.733,180.672 L 342.404,170.803 L 339.636,172.627 z "
   style="fill:#7dff00;stroke:#000000;stroke-width:0.34819999"
   id="path131" />
<path
   d="M 471.36,147.005 C 467.832,149.338 472.211,149.729 473.74,149.814 C 475.235,149.897 478.331,150.587 481.484,144.779 C 485.167,137.994 495.257,119.885 495.257,119.885 C 495.257,119.885 502.891,106.941 515.503,107.937 C 515.503,107.937 505.718,100.538 491.981,113.647 C 483.589,121.657 478.696,142.156 471.36,147.005 z "
   style="fill:#8f0000;stroke:#000000;stroke-width:0.49790001"
   id="path133" />
<path
   d="M 506.211,108.061 L 506.211,129.345 C 506.211,129.345 505.962,130.403 507.269,130.403 C 508.576,130.403 509.478,129.501 509.478,129.501 L 509.478,106.941 C 509.478,106.94 507.7,105.565 506.211,108.061 z "
   style="fill:#ffbf00;stroke:#000000;stroke-width:0.49790001"
   id="path135" />
<path
   d="M 498.604,128.833 C 498.408,128.77 498.157,126.759 498.112,126.552 C 497.748,124.87 497.384,123.188 497.021,121.506 C 496.688,119.964 496.406,118.436 496.104,116.905 C 495.901,115.868 495.151,114.272 496.312,113.519 C 496.902,113.137 497.932,113.097 498.47,114.01 C 498.47,114.01 501.424,127.292 501.764,129.128 L 500.61,129.468 C 500.609,129.469 498.605,128.833 498.604,128.833 z "
   style="fill:#ffbf00;stroke:#000000;stroke-width:0.49790001"
   id="path137" />
<path
   d="M 477.021,125.043 C 477.021,125.043 476.249,143.147 476.247,143.199 C 476.208,144.119 476.675,145.886 477.832,145.902 C 479.973,145.93 479.561,141.615 479.618,140.276 C 479.724,137.892 479.83,135.508 479.934,133.124 C 479.963,132.45 479.871,124.202 480.334,124.064 L 477.021,125.043 z "
   style="fill:#7dff00;stroke:#000000;stroke-width:0.49790001"
   id="path139" />
<path
   d="M 444.578,109.732 C 447.283,108.877 443.726,106.872 442.771,106.578 C 441.219,106.099 439.463,105.817 437.834,105.83 C 435.896,105.846 436.432,104.675 434.538,105.317 C 431.918,106.206 428.282,105.681 425.578,105.686 C 419.574,105.696 413.57,105.577 407.569,105.448 C 395.18,105.18 382.93,105.127 378.555,101.942 C 375.35,99.608 372.203,96.608 369.962,93.316 C 367.197,89.256 366.206,83.066 362.566,79.692 C 361.327,78.544 359.498,77.652 358.079,76.619 C 356.745,75.646 353.907,75.208 352.977,74.399 C 356.499,77.467 358.02,82.16 359.781,86.322 C 361.728,90.92 364.737,94.697 367.424,98.86 C 370.209,103.176 375.981,107.649 380.932,108.987 C 386.573,110.511 405.625,110.228 408.897,110.248 C 413.409,110.275 429.992,110.615 433.822,110.491 C 436.928,110.39 439.982,110.628 443.079,110.789 C 443.751,110.825 444.178,109.859 444.578,109.732 z "
   style="fill:#bf0000;stroke:#000000;stroke-width:0.49790001"
   id="path141" />
<path
   d="M 439.166,146.343 C 435.638,148.676 440.017,149.067 441.547,149.152 C 443.042,149.235 446.136,149.925 449.289,144.117 C 452.972,137.332 463.063,119.223 463.063,119.223 C 463.063,119.223 470.696,106.279 483.31,107.274 C 483.31,107.274 473.524,99.876 459.787,112.985 C 451.394,120.995 446.503,141.494 439.166,146.343 z "
   style="fill:#8f0000;stroke:#000000;stroke-width:0.49790001"
   id="path143" />
<path
   d="M 506.211,128.722 L 506.211,146.894 L 506.211,148.388 C 506.211,148.388 505.588,148.886 507.269,149.446 C 508.95,150.006 509.448,149.633 509.448,149.633 L 509.478,127.603 L 506.211,128.722 z "
   style="fill:#7dff00;stroke:#000000;stroke-width:0.49790001"
   id="path145" />
<path
   d="M 499.987,127.104 L 501.729,128.847 L 504.219,142.413 C 504.219,142.413 502.601,145.649 501.356,144.405 C 500.111,143.161 500.671,142.6 500.671,142.6 L 498.603,128.833 L 499.987,127.104 z "
   style="fill:#7dff00;stroke:#000000;stroke-width:0.49790001"
   id="path147" />
<path
   d="M 491.44,114.242 C 491.44,114.242 497.747,106.774 505.879,105.778 L 513.844,105.778 C 513.844,105.778 520.721,106.608 522.308,109.761 C 522.308,109.761 518.16,112.582 518.16,113.91 C 518.16,113.91 510.525,105.778 503.556,107.604 C 498.922,108.818 491.44,114.242 491.44,114.242 z "
   style="fill:#ff0000;stroke:#000000;stroke-width:0.49790001"
   id="path149" />
<path
   d="M 477.738,107.675 L 476.988,125.227 C 476.988,125.227 476.701,126.088 478.008,126.144 C 479.314,126.199 480.246,125.494 480.246,125.494 L 481.041,106.89 C 481.041,106.891 479.314,105.682 477.738,107.675 z "
   style="fill:#ffbf00;stroke:#000000;stroke-width:0.45230001"
   id="path151" />
<path
   d="M 470.92,127.729 L 470.987,147.378 L 469.674,148.691 L 468.311,147.328 L 467.875,128.098 C 467.875,128.098 467.612,126.729 469.244,126.729 C 470.876,126.729 470.92,127.729 470.92,127.729 z "
   style="fill:#7dff00;stroke:#000000;stroke-width:0.49790001"
   id="path153" />
<path
   d="M 467.377,110.923 C 467.377,110.923 466.879,108.931 468.497,108.558 C 470.115,108.184 470.115,109.678 470.115,109.678 L 470.987,129.219 L 469.43,130.775 L 467.874,129.219 L 467.377,110.923 z "
   style="fill:#ffbf00;stroke:#000000;stroke-width:0.45230001"
   id="path155" />
<path
   d="M 458.664,119.138 C 458.664,119.138 458.042,117.644 460.158,117.644 C 462.273,117.644 461.465,118.453 461.465,118.453 L 462.837,130.275 L 461.963,131.149 L 460.719,129.904 L 458.664,119.138 z "
   style="fill:#ffbf00;stroke:#000000;stroke-width:0.45230001"
   id="path157" />
<path
   d="M 462.513,127.429 L 464.752,139.189 L 462.398,138.43 L 460.905,135.941 L 460.347,127.963 C 460.348,127.963 461.973,126.492 462.513,127.429 z "
   style="fill:#7dff00;stroke:#000000;stroke-width:0.49790001"
   id="path159" />
<path
   d="M 489.7,117.691 C 490.663,117.174 491.756,117.89 491.679,119.417 C 491.522,122.56 488.643,124.941 487.93,127.956 C 487.745,128.737 486.305,126.572 486.251,126.357 C 485.949,125.144 486.343,124.453 486.856,123.36 C 487.618,121.742 487.983,119.953 488.947,118.428 C 489.169,118.079 489.43,117.836 489.7,117.691 z "
   style="fill:#ffbf00;stroke:#000000;stroke-width:0.45230001"
   id="path161" />
<path
   d="M 487.692,127.885 C 487.06,129.312 485.982,136.704 483.347,134.914 C 481.525,133.677 484.213,129.689 484.809,128.314 C 485.147,127.533 485.398,126.617 485.84,125.903 C 486.04,126.963 487.454,127.24 488.287,126.735 C 488.063,127.106 487.867,127.491 487.692,127.885 z "
   style="fill:#7dff00;stroke:#000000;stroke-width:0.49790001"
   id="path163" />
<path
   d="M 471.277,107.189 C 471.277,107.189 474.347,106.774 480.654,113.081 C 487.623,120.05 496.595,140.127 497.5,142.87 C 502.062,156.727 503.888,149.425 509.447,151.334 C 509.447,151.334 511.975,152.579 515.181,143.917 C 515.181,143.917 512.268,151.334 509.447,148.513 C 508.037,147.102 506.554,143.947 504.551,139.8 C 502.547,135.653 493.349,116.152 489.366,112.169 C 485.383,108.186 483.556,106.527 477.915,105.033 C 477.915,105.033 474.538,105.257 471.442,105.033 C 471.442,105.033 463.436,106.181 459.786,112.986 C 459.787,112.985 465.802,106.194 471.277,107.189 z "
   style="fill:#ff0000;stroke:#000000;stroke-width:0.49790001"
   id="path165" />
<path
   d="M 444.66,126.297 C 444.66,126.297 443.889,142.393 443.886,142.439 C 443.847,143.257 444.315,144.828 445.471,144.842 C 447.612,144.867 447.2,141.03 447.258,139.84 C 447.363,137.72 447.469,135.601 447.573,133.481 C 447.603,132.881 447.51,125.548 447.973,125.426 L 444.66,126.297 z "
   style="fill:#7dff00;stroke:#000000;stroke-width:0.46939999"
   id="path167" />
<path
   d="M 445.377,110.854 L 444.627,126.459 C 444.627,126.459 444.341,127.226 445.647,127.275 C 446.954,127.324 447.885,126.697 447.885,126.697 L 448.68,110.156 C 448.68,110.157 446.953,109.082 445.377,110.854 z "
   style="fill:#ffbf00;stroke:#000000;stroke-width:0.42649999"
   id="path169" />
<path
   d="M 437.008,108.615 L 437.008,129.298 C 437.008,129.298 436.759,130.326 438.067,130.326 C 439.374,130.326 440.276,129.449 440.276,129.449 L 440.276,107.526 C 440.275,107.526 438.498,106.19 437.008,108.615 z "
   style="fill:#ffbf00;stroke:#000000;stroke-width:0.49079999"
   id="path171" />
<path
   d="M 437.008,128.693 L 437.008,146.352 L 437.008,147.804 C 437.008,147.804 436.385,148.287 438.067,148.832 C 439.746,149.376 440.245,149.013 440.245,149.013 L 440.276,127.605 L 437.008,128.693 z "
   style="fill:#7dff00;stroke:#000000;stroke-width:0.49079999"
   id="path173" />
<path
   d="M 427.269,109.575 L 427.269,136.567 C 427.269,136.567 427.02,137.909 428.327,137.909 C 429.634,137.909 430.536,136.765 430.536,136.765 L 430.536,108.154 C 430.535,108.154 428.758,106.411 427.269,109.575 z "
   style="fill:#ffbf00;stroke:#000000;stroke-width:0.5607"
   id="path175" />
<path
   d="M 427.269,136.192 L 427.269,145.283 L 427.269,146.031 C 427.269,146.031 426.647,146.28 428.327,146.56 C 430.007,146.84 430.506,146.654 430.506,146.654 L 430.536,135.632 L 427.269,136.192 z "
   style="fill:#7dff00;stroke:#000000;stroke-width:0.35210001"
   id="path177" />
<path
   d="M 417.436,109.479 L 417.436,137.124 C 417.436,137.124 417.187,138.499 418.494,138.499 C 419.801,138.499 420.703,137.327 420.703,137.327 L 420.703,108.025 C 420.702,108.024 418.926,106.238 417.436,109.479 z "
   style="fill:#ffbf00;stroke:#000000;stroke-width:0.56739998"
   id="path179" />
<path
   d="M 417.436,136.177 L 417.436,145.59 L 417.436,146.364 C 417.436,146.364 416.814,146.621 418.494,146.912 C 420.175,147.202 420.673,147.008 420.673,147.008 L 420.703,135.597 L 417.436,136.177 z "
   style="fill:#7dff00;stroke:#000000;stroke-width:0.3583"
   id="path181" />
<path
   d="M 407.852,108.803 L 407.852,128.531 C 407.852,128.531 407.603,129.512 408.911,129.512 C 410.218,129.512 411.12,128.676 411.12,128.676 L 411.12,107.765 C 411.119,107.765 409.342,106.49 407.852,108.803 z "
   style="fill:#ffbf00;stroke:#000000;stroke-width:0.47929999"
   id="path183" />
<path
   d="M 407.852,127.457 L 407.852,144.301 L 407.852,145.686 C 407.852,145.686 407.23,146.147 408.911,146.666 C 410.591,147.186 411.089,146.839 411.089,146.839 L 411.12,126.419 L 407.852,127.457 z "
   style="fill:#7dff00;stroke:#000000;stroke-width:0.47929999"
   id="path185" />
<path
   d="M 398.392,109.146 L 398.392,137.113 C 398.392,137.113 398.144,138.503 399.451,138.503 C 400.758,138.503 401.66,137.317 401.66,137.317 L 401.66,107.673 C 401.659,107.673 399.882,105.867 398.392,109.146 z "
   style="fill:#ffbf00;stroke:#000000;stroke-width:0.57069999"
   id="path187" />
<path
   d="M 398.392,137.058 L 398.392,145.947 L 398.392,146.677 C 398.392,146.677 397.77,146.921 399.451,147.195 C 401.132,147.469 401.629,147.286 401.629,147.286 L 401.66,136.51 L 398.392,137.058 z "
   style="fill:#7dff00;stroke:#000000;stroke-width:0.34819999"
   id="path189" />
<path
   d="M 387.029,108.354 L 382.97,128.635 C 382.97,128.635 382.525,129.594 383.806,129.85 C 385.088,130.107 386.144,129.424 386.144,129.424 L 390.446,107.928 C 390.446,107.927 388.965,106.269 387.029,108.354 z "
   style="fill:#ffbf00;stroke:#000000;stroke-width:0.49079999"
   id="path191" />
<path
   d="M 384.146,132.289 L 388.971,147.498 L 389.368,148.748 C 389.368,148.748 388.907,149.353 390.658,149.314 C 392.409,149.274 392.783,148.811 392.783,148.811 L 386.963,130.363 L 384.146,132.289 z "
   style="fill:#7dff00;stroke:#000000;stroke-width:0.46650001"
   id="path193" />
<path
   d="M 377.817,105.988 L 370.367,125.282 C 370.367,125.282 369.765,126.151 370.984,126.622 C 372.203,127.093 373.361,126.6 373.361,126.6 L 381.257,106.149 C 381.258,106.148 380.081,104.262 377.817,105.988 z "
   style="fill:#ffbf00;stroke:#000000;stroke-width:0.49079999"
   id="path195" />
<path
   d="M 384.587,150.333 L 375.652,135.101 L 374.918,133.849 C 374.918,133.849 375.21,133.117 373.485,133.497 C 371.759,133.878 371.515,134.443 371.515,134.443 L 382.318,152.925 L 384.587,150.333 z "
   style="fill:#7dff00;stroke:#000000;stroke-width:0.49079999"
   id="path197" />
<path
   d="M 444.977,150.115 C 445.397,149.896 445.819,149.615 446.245,149.252 C 447.931,147.821 452.492,140.629 452.419,138.816 C 448.127,145.608 444.718,148.487 442.901,148.72 C 441.143,148.947 439.557,147.392 437.959,146.811 C 436.928,146.436 435.471,146.619 434.398,146.582 C 425.509,146.273 416.614,146.268 407.721,146.297 C 403.507,146.311 399.265,146.192 395.072,146.226 C 391.104,146.258 387.082,147.831 383.505,149.406 C 375.84,152.779 369.016,157.946 362.803,163.499 C 359.212,166.709 356.079,170.462 352.451,173.609 C 350.861,174.988 349.263,176.359 347.649,177.709 C 345.022,179.903 342.256,181.921 339.082,183.247 C 336.012,184.529 333.058,184.531 329.799,184.773 C 328.333,184.881 325.315,184.007 324.123,185.065 C 322.928,186.126 326.956,186.227 327.463,186.244 C 330.401,186.345 333.326,185.603 336.274,185.603 C 337.834,185.603 339.443,185.423 340.962,185.43 C 342.271,185.436 343.436,185.741 344.747,185.594 C 345.535,185.507 346.209,185.416 346.976,185.145 C 348.889,184.468 350.214,182.85 351.783,181.67 C 353.455,180.413 355.146,179.194 356.772,177.877 C 359.71,175.497 362.511,172.955 365.269,170.37 C 370.091,165.849 374.815,161.1 380.437,157.557 C 387.876,152.87 396.428,151.107 405.146,151.107 C 424.932,151.108 430.07,150.75 438.525,150.752 C 441.011,150.753 442.984,151.151 444.977,150.115 z "
   style="fill:#ff0000;stroke:#000000;stroke-width:0.49790001"
   id="path199" />
<path
   d="M 437.933,107.436 C 438.848,107.778 439.723,108.199 440.544,108.715 C 441.804,109.508 442.95,110.571 443.997,111.621 C 447.564,115.196 450.137,119.678 451.943,124.366 C 457.254,138.14 462.067,145.11 462.067,145.11 C 462.067,145.11 465.22,150.089 468.374,151.417 C 468.374,151.417 473.352,150.421 476.173,151.417 C 476.173,151.417 478.701,149.835 481.907,144 C 481.907,144 478.994,148.596 476.173,148.596 C 473.352,148.596 468.787,143.866 468.787,142.373 C 468.787,142.373 456.094,116.567 456.093,116.567 C 455.263,114.881 453.76,113.775 452.511,112.377 C 451.334,111.06 450.177,109.708 448.634,108.804 C 446.69,107.665 444.725,106.489 442.582,105.755 C 440.644,105.092 438.512,105.109 436.452,105.056 C 432.653,104.96 428.853,104.792 425.054,104.951 C 424.833,104.96 424.612,104.958 424.39,104.959 C 414.724,105.022 425.465,104.833 415.8,104.748 C 409.322,104.69 402.847,104.632 396.369,104.574 C 394.419,104.556 392.471,104.661 390.522,104.716 C 388.701,104.768 386.805,104.924 385.041,104.413 C 384.474,104.249 383.89,104.144 383.336,103.916 C 382.141,103.422 381.065,102.754 379.828,102.351 C 379.58,102.27 379.088,102.057 378.868,102.119 C 379.817,103.234 381.217,103.683 382.475,104.323 C 384.167,105.184 386.024,105.788 387.92,105.952 C 389.396,106.079 390.883,105.893 392.354,105.93 C 395.78,106.012 399.207,106.066 402.634,106.103 C 409.488,106.178 395.931,106.186 402.786,106.217 C 405.39,106.228 407.995,106.244 410.599,106.267 C 416.59,106.321 422.585,106.376 428.573,106.6 C 431.474,106.707 435.156,106.398 437.933,107.436 z "
   style="fill:#ff0000;stroke:#000000;stroke-width:0.49790001"
   id="path201" />
<linearGradient
   x1="442.41501"
   y1="101.9468"
   x2="442.08301"
   y2="157.7077"
   id="XMLID_10_"
   gradientUnits="userSpaceOnUse">
	<stop
   style="stop-color:#006b33;stop-opacity:1"
   offset="0"
   id="stop204" />
	<stop
   style="stop-color:#007530;stop-opacity:1"
   offset="0.0165"
   id="stop206" />
	<stop
   style="stop-color:#009f21;stop-opacity:1"
   offset="0.0944"
   id="stop208" />
	<stop
   style="stop-color:#00c215;stop-opacity:1"
   offset="0.17389999"
   id="stop210" />
	<stop
   style="stop-color:#00dd0c;stop-opacity:1"
   offset="0.25409999"
   id="stop212" />
	<stop
   style="stop-color:#00f005;stop-opacity:1"
   offset="0.3353"
   id="stop214" />
	<stop
   style="stop-color:#00fb01;stop-opacity:1"
   offset="0.4183"
   id="stop216" />
	<stop
   style="stop-color:#00ff00;stop-opacity:1"
   offset="0.50559998"
   id="stop218" />
	<stop
   style="stop-color:#006b33;stop-opacity:1"
   offset="1"
   id="stop220" />
	<a:midPointStop
   offset="0"
   style="stop-color:#006B33" />
	<a:midPointStop
   offset="0.2825"
   style="stop-color:#006B33" />
	<a:midPointStop
   offset="0.5056"
   style="stop-color:#00FF00" />
	<a:midPointStop
   offset="0.5"
   style="stop-color:#00FF00" />
	<a:midPointStop
   offset="1"
   style="stop-color:#006B33" />
</linearGradient>
<path
   d="M 453.934,127.186 C 453.934,138.157 452.802,150.112 448.056,160.165 C 446.16,164.182 441.764,169.031 436.991,169.317 C 432.746,169.571 430.591,165.174 431.208,161.454 C 431.641,158.848 432.345,156.449 434.584,154.808 C 437.37,152.766 438.46,152.097 439.238,148.445 C 441.204,139.223 441.485,129.044 441.488,119.543 C 441.489,114.637 442.828,101.907 436.841,100.035 C 434.111,99.181 431.376,99.898 430.851,95.654 C 430.284,91.061 433.595,85.364 438.668,85.365 C 447.098,85.366 453.934,104.089 453.934,127.186 z "
   style="fill:url(#XMLID_10_)"
   id="path222" />
<polygon
   points="350.511,141.168 350.511,121.752 384.661,130.616 350.511,141.168 "
   style="fill:#003cff;stroke:#2210d2;stroke-width:2.48930001"
   id="polygon224" />
<path
   d="M 331.294,162.548 L 331.294,180.207 L 331.294,181.659 C 331.294,181.659 330.672,182.143 332.352,182.687 C 334.033,183.231 334.53,182.868 334.53,182.868 L 334.561,161.459 L 331.294,162.548 z "
   style="fill:#7dff00;stroke:#000000;stroke-width:0.47929999"
   id="path226" />
<path
   d="M 320.412,172.036 L 320.412,181.127 L 320.412,181.875 C 320.412,181.875 319.789,182.124 321.469,182.405 C 323.15,182.685 323.648,182.498 323.648,182.498 L 323.679,171.476 L 320.412,172.036 z "
   style="fill:#7dff00;stroke:#000000;stroke-width:0.47929999"
   id="path228" />
<path
   d="M 310.579,172.021 L 310.579,181.434 L 310.579,182.207 C 310.579,182.207 309.956,182.464 311.636,182.755 C 313.318,183.045 313.815,182.852 313.815,182.852 L 313.846,171.441 L 310.579,172.021 z "
   style="fill:#7dff00;stroke:#000000;stroke-width:0.47929999"
   id="path230" />
<path
   d="M 300.994,163.301 L 300.994,180.145 L 300.994,181.529 C 300.994,181.529 300.372,181.99 302.053,182.509 C 303.734,183.028 304.232,182.682 304.232,182.682 L 304.262,162.262 L 300.994,163.301 z "
   style="fill:#7dff00;stroke:#000000;stroke-width:0.47929999"
   id="path232" />
<path
   d="M 290.373,172.569 L 290.373,181.458 L 290.373,182.189 C 290.373,182.189 289.75,182.432 291.431,182.706 C 293.111,182.98 293.609,182.797 293.609,182.797 L 293.64,172.021 L 290.373,172.569 z "
   style="fill:#7dff00;stroke:#000000;stroke-width:0.47929999"
   id="path234" />
<path
   d="M 271.376,164.634 L 271.613,180.589 L 271.632,181.901 C 271.632,181.901 271.017,182.347 272.703,182.815 C 274.391,183.281 274.884,182.946 274.884,182.946 L 274.629,163.603 L 271.376,164.634 z "
   style="fill:#7dff00;stroke:#000000;stroke-width:0.47929999"
   id="path236" />
<path
   d="M 280.58,163.134 L 280.58,179.978 L 280.58,181.363 C 280.58,181.363 279.958,181.824 281.638,182.344 C 283.319,182.863 283.816,182.516 283.816,182.516 L 283.848,162.096 L 280.58,163.134 z "
   style="fill:#7dff00;stroke:#000000;stroke-width:0.47929999"
   id="path238" />
<path
   d="M 261.323,163.465 L 261.323,180.31 L 261.323,181.694 C 261.323,181.694 260.701,182.154 262.382,182.674 C 264.062,183.194 264.56,182.848 264.56,182.848 L 264.591,162.427 L 261.323,163.465 z "
   style="fill:#7dff00;stroke:#000000;stroke-width:0.47929999"
   id="path240" />
<path
   d="M 222.755,164.467 L 222.99,180.422 L 223.01,181.734 C 223.01,181.734 222.395,182.181 224.082,182.647 C 225.77,183.114 226.262,182.779 226.262,182.779 L 226.007,163.437 L 222.755,164.467 z "
   style="fill:#7dff00;stroke:#000000;stroke-width:0.47929999"
   id="path242" />
<path
   d="M 232.456,162.967 L 232.456,179.811 L 232.456,181.196 C 232.456,181.196 231.833,181.657 233.514,182.175 C 235.195,182.695 235.692,182.348 235.692,182.348 L 235.723,161.928 L 232.456,162.967 z "
   style="fill:#7dff00;stroke:#000000;stroke-width:0.47929999"
   id="path244" />
<path
   d="M 251.872,172.037 L 251.872,181.127 L 251.872,181.875 C 251.872,181.875 251.25,182.124 252.931,182.405 C 254.611,182.685 255.109,182.498 255.109,182.498 L 255.14,171.477 L 251.872,172.037 z "
   style="fill:#7dff00;stroke:#000000;stroke-width:0.47929999"
   id="path246" />
<path
   d="M 242.039,172.021 L 242.039,181.434 L 242.039,182.207 C 242.039,182.207 241.417,182.465 243.098,182.755 C 244.778,183.045 245.276,182.852 245.276,182.852 L 245.307,171.441 L 242.039,172.021 z "
   style="fill:#7dff00;stroke:#000000;stroke-width:0.47929999"
   id="path248" />
<path
   d="M 236.411,74.981 L 236.411,97.398 C 236.411,97.398 236.162,98.512 237.469,98.512 C 238.776,98.512 239.679,97.562 239.679,97.562 L 239.679,73.802 C 239.679,73.802 237.901,72.354 236.411,74.981 z "
   style="fill:#ffbf00;stroke:#000000;stroke-width:0.51090002"
   id="path250" />
<path
   d="M 226.578,74.902 L 226.578,97.859 C 226.578,97.859 226.329,99.001 227.636,99.001 C 228.944,99.001 229.846,98.028 229.846,98.028 L 229.846,73.694 C 229.846,73.694 228.068,72.211 226.578,74.902 z "
   style="fill:#ffbf00;stroke:#000000;stroke-width:0.51709998"
   id="path252" />
<path
   d="M 216.994,74.12 L 216.994,87.364 C 216.994,87.364 216.745,88.022 218.053,88.022 C 219.36,88.022 220.262,87.46 220.262,87.46 L 220.262,73.423 C 220.262,73.423 218.484,72.567 216.994,74.12 z "
   style="fill:#ffbf00;stroke:#000000;stroke-width:0.39269999"
   id="path254" />
<path
   d="M 207.535,73.977 L 207.535,87.99 C 207.535,87.99 207.286,88.686 208.593,88.686 C 209.9,88.686 210.802,88.092 210.802,88.092 L 210.802,73.239 C 210.802,73.239 209.025,72.334 207.535,73.977 z "
   style="fill:#ffbf00;stroke:#000000;stroke-width:0.40400001"
   id="path256" />
<path
   d="M 340.074,74.389 L 333.092,100.462 C 333.092,100.462 332.504,101.694 333.766,102.032 C 335.029,102.37 336.198,101.498 336.198,101.498 L 343.598,73.862 C 343.598,73.862 342.333,71.717 340.074,74.389 z "
   style="fill:#ffbf00;stroke:#000000;stroke-width:0.5607"
   id="path258" />
<path
   d="M 366.075,95.232 L 342.818,110.178 C 342.818,110.178 341.528,110.711 342.234,111.811 C 342.941,112.911 344.416,113.036 344.416,113.036 L 369.065,97.195 C 369.065,97.194 369.607,94.733 366.075,95.232 z "
   style="fill:#ffbf00;stroke:#000000;stroke-width:0.56739998"
   id="path260" />
<path
   d="M 371.453,102.209 L 359.431,117.851 C 359.431,117.851 358.636,118.477 359.672,119.273 C 360.707,120.07 361.934,119.957 361.934,119.957 L 374.676,103.377 C 374.676,103.377 374.044,101.284 371.453,102.209 z "
   style="fill:#ffbf00;stroke:#000000;stroke-width:0.47929999"
   id="path262" />
<path
   d="M 273.543,74.701 L 273.543,99.011 C 273.543,99.011 273.295,100.219 274.602,100.219 C 275.909,100.219 276.811,99.188 276.811,99.188 L 276.811,73.422 C 276.811,73.422 275.034,71.852 273.543,74.701 z "
   style="fill:#ffbf00;stroke:#000000;stroke-width:0.53210002"
   id="path264" />
<path
   d="M 254.344,74.513 L 254.344,90.429 C 254.344,90.429 254.095,91.22 255.403,91.22 C 256.71,91.22 257.612,90.545 257.612,90.545 L 257.612,73.675 C 257.611,73.676 255.835,72.647 254.344,74.513 z "
   style="fill:#ffbf00;stroke:#000000;stroke-width:0.4305"
   id="path266" />
<path
   d="M 244.885,74.341 L 244.885,91.181 C 244.885,91.181 244.636,92.018 245.943,92.018 C 247.25,92.018 248.153,91.304 248.153,91.304 L 248.153,73.455 C 248.152,73.455 246.375,72.367 244.885,74.341 z "
   style="fill:#ffbf00;stroke:#000000;stroke-width:0.44279999"
   id="path268" />
<path
   d="M 285.025,73.954 L 285.025,87.197 C 285.025,87.197 284.776,87.855 286.083,87.855 C 287.391,87.855 288.292,87.294 288.292,87.294 L 288.292,73.257 C 288.292,73.257 286.516,72.401 285.025,73.954 z "
   style="fill:#ffbf00;stroke:#000000;stroke-width:0.39269999"
   id="path270" />
<path
   d="M 263.586,74.341 L 263.586,91.181 C 263.586,91.181 263.337,92.018 264.644,92.018 C 265.952,92.018 266.854,91.304 266.854,91.304 L 266.854,73.455 C 266.854,73.455 265.076,72.367 263.586,74.341 z "
   style="fill:#ffbf00;stroke:#000000;stroke-width:0.44279999"
   id="path272" />
<path
   d="M 320.55,74.65 L 320.55,97.066 C 320.55,97.066 320.301,98.18 321.608,98.18 C 322.916,98.18 323.818,97.23 323.818,97.23 L 323.818,73.47 C 323.817,73.47 322.04,72.022 320.55,74.65 z "
   style="fill:#ffbf00;stroke:#000000;stroke-width:0.51090002"
   id="path274" />
<path
   d="M 310.718,74.57 L 310.718,97.528 C 310.718,97.528 310.468,98.669 311.775,98.669 C 313.083,98.669 313.985,97.695 313.985,97.695 L 313.985,73.362 C 313.984,73.362 312.207,71.879 310.718,74.57 z "
   style="fill:#ffbf00;stroke:#000000;stroke-width:0.51709998"
   id="path276" />
<path
   d="M 329.688,74.12 L 329.688,87.364 C 329.688,87.364 329.439,88.022 330.747,88.022 C 332.054,88.022 332.956,87.46 332.956,87.46 L 332.956,73.423 C 332.955,73.423 331.178,72.567 329.688,74.12 z "
   style="fill:#ffbf00;stroke:#000000;stroke-width:0.39269999"
   id="path278" />
<path
   d="M 349.715,75.107 L 345.603,87.696 C 345.603,87.696 345.162,88.245 346.404,88.651 C 347.646,89.057 348.678,88.804 348.678,88.804 L 353.036,75.46 C 353.036,75.459 351.613,74.094 349.715,75.107 z "
   style="fill:#ffbf00;stroke:#000000;stroke-width:0.39269999"
   id="path280" />
<path
   d="M 360.189,84.351 L 339.845,102.092 C 339.845,102.092 338.67,102.786 339.529,103.771 C 340.389,104.756 341.843,104.684 341.843,104.684 L 363.406,85.88 C 363.407,85.879 363.554,83.394 360.189,84.351 z "
   style="fill:#ffbf00;stroke:#000000;stroke-width:0.5607"
   id="path282" />
<g
   id="g284">
	<path
   d="M 378.452,84.592 C 377.095,80.382 369.787,81.245 368.392,84.957 C 367.76,86.64 368.946,92.315 371.683,90.487 C 369.83,91.724 367.539,91.756 365.573,90.869 C 364.826,90.532 363.995,89.298 363.025,90.358 C 362.288,91.164 363.134,92.051 363.825,92.573 C 368.572,96.161 380.689,91.531 378.452,84.592 z "
   style="fill:#8210d2;stroke:#000000;stroke-width:0.49790001"
   id="path286" />
	<path
   d="M 374.918,85.508 C 375.105,84.937 375.092,84.224 374.807,83.335 C 377.343,82.86 377.816,85.032 377.184,87.014 C 376.413,89.433 372.877,91.181 370.551,91.722 C 370.954,91.365 371.43,90.813 371.949,90.498 C 369.54,90.92 367.574,87.179 368.746,85.557 C 369.921,88.125 373.937,88.509 374.918,85.508 z "
   style="fill:#521d7f"
   id="path288" />
</g>
<g
   id="g290">
	<path
   d="M 365.272,163.999 C 364.705,163.923 364.254,163.672 363.664,163.064 C 363.011,162.394 362.323,159.664 360.834,160.828 C 359.331,162.002 362.826,164.379 363.055,165.431 C 363.192,166.067 362.829,166.334 362.744,166.97 C 362.543,168.47 361.982,169.417 362.582,170.967 C 363.853,174.255 367.855,175.925 370.766,174.078 C 373.666,172.238 374.277,167.617 371.402,165.176 C 369.923,163.92 368.432,163.802 366.706,163.966 C 366.115,164.02 365.666,164.051 365.272,163.999 z "
   style="fill:#8210d2;stroke:#000000;stroke-width:0.49790001"
   id="path292" />
	<path
   d="M 368.265,165.893 C 368.06,165.827 367.9,165.872 367.787,166.032 C 367.978,166.868 368.231,167.726 368.606,168.51 C 368.042,167.874 366.764,165.782 365.799,165.839 C 364.323,165.926 365.168,167.472 365.805,168.055 C 364.437,170.017 366.199,172.129 368.048,172.483 C 365.755,174.066 363.064,171.92 362.879,169.495 C 362.795,168.396 363.299,167.567 363.391,166.52 C 363.505,165.193 362.969,164.394 362.732,163.2 C 364.448,164.258 366.841,163.632 368.257,164.828 C 368.095,165.069 368.067,165.286 367.931,165.524"
   style="fill:#521d7f"
   id="path294" />
</g>
<g
   id="g296">
	<path
   d="M 374.336,156.699 C 373.764,156.672 373.292,156.46 372.652,155.906 C 371.944,155.293 371.026,152.632 369.641,153.919 C 368.244,155.217 371.93,157.287 372.246,158.315 C 372.437,158.937 372.1,159.233 372.069,159.874 C 371.997,161.387 371.518,162.377 372.249,163.871 C 373.796,167.038 377.926,168.359 380.669,166.271 C 383.4,164.189 383.613,159.533 380.541,157.347 C 378.96,156.222 377.464,156.232 375.759,156.542 C 375.176,156.648 374.731,156.718 374.336,156.699 z "
   style="fill:#8210d2;stroke:#000000;stroke-width:0.49790001"
   id="path298" />
	<path
   d="M 376.194,159.372 C 375.021,157.438 373.772,159.419 375.342,160.788 C 373.394,163.494 375.64,164.681 377.771,165.309 C 374.6,169.513 371.794,160.458 372.836,158.02 C 372.3,157.375 371.655,156.807 371.475,155.991 C 372.828,155.851 374.229,157.031 375.707,157.006 C 376.811,156.987 379.778,156.227 379.92,158.273 C 379.936,158.481 376.214,157.879 376.194,159.372 z "
   style="fill:#521d7f"
   id="path300" />
</g>
<g
   id="g302">
	<path
   d="M 352.955,177.866 C 352.384,177.83 351.917,177.611 351.284,177.048 C 350.586,176.424 349.708,173.75 348.304,175.016 C 346.888,176.292 350.541,178.417 350.843,179.451 C 351.025,180.076 350.683,180.368 350.643,181.008 C 350.548,182.518 350.055,183.502 350.762,185.006 C 352.261,188.195 356.37,189.579 359.144,187.533 C 361.908,185.493 362.191,180.841 359.152,178.608 C 357.589,177.46 356.092,177.447 354.381,177.732 C 353.797,177.828 353.351,177.891 352.955,177.866 z "
   style="fill:#8210d2;stroke:#000000;stroke-width:0.49790001"
   id="path304" />
	<path
   d="M 356.072,179.544 C 355.862,179.492 355.707,179.549 355.606,179.716 C 355.856,180.537 356.169,181.375 356.597,182.13 C 355.99,181.535 354.568,179.538 353.609,179.663 C 352.144,179.853 353.095,181.336 353.772,181.873 C 352.545,183.927 354.452,185.909 356.322,186.131 C 354.145,187.873 351.309,185.921 350.955,183.515 C 350.794,182.424 351.238,181.562 351.256,180.512 C 351.277,179.181 350.685,178.421 350.365,177.246 C 352.15,178.182 354.494,177.387 355.991,178.48 C 355.846,178.733 355.834,178.951 355.713,179.198"
   style="fill:#521d7f"
   id="path306" />
</g>
<g
   id="g308">
	<path
   d="M 340.035,184.752 C 338.896,184.366 338.398,183.119 338.126,182.044 C 339.096,181.182 341.554,182.744 341.188,180.612 C 340.874,178.78 336.987,178.261 336,179.641 C 334.615,181.579 337.548,183.85 337.582,185.727 C 337.594,186.377 337.187,186.57 336.98,187.177 C 336.492,188.611 335.758,189.43 336.045,191.067 C 336.657,194.539 340.259,196.952 343.473,195.704 C 346.674,194.46 348.167,190.045 345.82,187.093 C 344.613,185.574 343.173,185.17 341.447,184.996 C 340.857,184.936 340.411,184.88 340.035,184.752 z "
   style="fill:#8210d2;stroke:#000000;stroke-width:0.49790001"
   id="path310" />
	<path
   d="M 341.083,187.834 C 340.491,185.651 338.743,187.209 339.872,188.959 C 337.251,191.02 339.081,192.782 340.955,193.977 C 336.744,197.138 336.555,187.661 338.23,185.606 C 337.892,184.839 337.431,184.114 337.483,183.279 C 338.822,183.52 339.842,185.041 341.269,185.426 C 342.334,185.714 345.398,185.804 344.967,187.811 C 344.924,188.014 341.515,186.405 341.083,187.834 z "
   style="fill:#521d7f"
   id="path312" />
</g>
<path
   d="M 286.886,93.226 L 286.886,114.905 L 286.886,116.687 C 286.886,116.687 286.263,117.281 287.943,117.949 C 289.624,118.617 290.122,118.172 290.122,118.172 L 290.153,91.89 L 286.886,93.226 z "
   style="fill:#7dff00;stroke:#000000;stroke-width:0.5438"
   id="path314" />
<path
   d="M 254.374,93.61 L 254.688,112.516 L 254.713,114.07 C 254.713,114.07 254.1,114.596 255.789,115.157 C 257.479,115.717 257.971,115.322 257.971,115.322 L 257.621,92.403 L 254.374,93.61 z "
   style="fill:#7dff00;stroke:#000000;stroke-width:0.52179998"
   id="path316" />
<path
   d="M 263.655,93.912 L 263.655,112.709 L 263.655,114.253 C 263.655,114.253 263.033,114.768 264.713,115.347 C 266.394,115.927 266.891,115.54 266.891,115.54 L 266.923,92.753 L 263.655,93.912 z "
   style="fill:#7dff00;stroke:#000000;stroke-width:0.50629997"
   id="path318" />
<path
   d="M 244.897,93.841 L 244.897,112.379 L 244.897,113.902 C 244.897,113.902 244.274,114.41 245.955,114.981 C 247.636,115.553 248.133,115.171 248.133,115.171 L 248.164,92.698 L 244.897,93.841 z "
   style="fill:#7dff00;stroke:#000000;stroke-width:0.50279999"
   id="path320" />
<radialGradient
   cx="273.23441"
   cy="114.9399"
   r="5.1482"
   id="XMLID_11_"
   gradientUnits="userSpaceOnUse">
	<stop
   style="stop-color:#ff7f00;stop-opacity:1"
   offset="0"
   id="stop323" />
	<stop
   style="stop-color:#8f0000;stop-opacity:1"
   offset="1"
   id="stop325" />
	<a:midPointStop
   offset="0"
   style="stop-color:#FF7F00" />
	<a:midPointStop
   offset="0.5"
   style="stop-color:#FF7F00" />
	<a:midPointStop
   offset="1"
   style="stop-color:#8F0000" />
</radialGradient>
<polygon
   points="278.69,114.302 276.772,115.804 278.69,117.508 278.69,119.512 271.222,119.512 271.222,117.305 269.383,115.888 271.222,114.505 271.222,112.292 278.69,112.292 278.69,114.302 "
   style="fill:url(#XMLID_11_);stroke:#000000;stroke-width:0.49790001"
   id="polygon327" />
<radialGradient
   cx="286.93259"
   cy="118.52"
   r="5.1482"
   id="XMLID_12_"
   gradientUnits="userSpaceOnUse">
	<stop
   style="stop-color:#ff7f00;stop-opacity:1"
   offset="0"
   id="stop330" />
	<stop
   style="stop-color:#8f0000;stop-opacity:1"
   offset="1"
   id="stop332" />
	<a:midPointStop
   offset="0"
   style="stop-color:#FF7F00" />
	<a:midPointStop
   offset="0.5"
   style="stop-color:#FF7F00" />
	<a:midPointStop
   offset="1"
   style="stop-color:#8F0000" />
</radialGradient>
<polygon
   points="292.389,117.882 290.472,119.384 292.389,121.088 292.389,123.092 284.922,123.092 284.922,120.885 283.082,119.468 284.922,118.085 284.922,115.873 292.389,115.873 292.389,117.882 "
   style="fill:url(#XMLID_12_);stroke:#000000;stroke-width:0.49790001"
   id="polygon334" />
<path
   d="M 217.088,90.78 L 217.4,111.851 L 217.425,113.583 C 217.425,113.583 216.811,114.169 218.501,114.794 C 220.191,115.419 220.683,114.978 220.683,114.978 L 220.336,89.433 L 217.088,90.78 z "
   style="fill:#7dff00;stroke:#000000;stroke-width:0.55080003"
   id="path336" />
<path
   d="M 226.627,101.677 L 226.627,112.568 L 226.627,113.463 C 226.627,113.463 226.005,113.761 227.686,114.097 C 229.366,114.432 229.864,114.209 229.864,114.209 L 229.895,101.007 L 226.627,101.677 z "
   style="fill:#7dff00;stroke:#000000;stroke-width:0.3854"
   id="path338" />
<path
   d="M 207.703,90.511 L 207.703,111.004 L 207.703,112.688 C 207.703,112.688 207.081,113.249 208.761,113.881 C 210.442,114.512 210.94,114.091 210.94,114.091 L 210.97,89.249 L 207.703,90.511 z "
   style="fill:#7dff00;stroke:#000000;stroke-width:0.52869999"
   id="path340" />
<radialGradient
   cx="226.3604"
   cy="114.8687"
   r="5.1476998"
   id="XMLID_13_"
   gradientUnits="userSpaceOnUse">
	<stop
   style="stop-color:#ff7f00;stop-opacity:1"
   offset="0"
   id="stop343" />
	<stop
   style="stop-color:#8f0000;stop-opacity:1"
   offset="1"
   id="stop345" />
	<a:midPointStop
   offset="0"
   style="stop-color:#FF7F00" />
	<a:midPointStop
   offset="0.5"
   style="stop-color:#FF7F00" />
	<a:midPointStop
   offset="1"
   style="stop-color:#8F0000" />
</radialGradient>
<polygon
   points="231.815,114.231 229.898,115.732 231.815,117.437 231.815,119.44 224.348,119.44 224.348,117.234 222.51,115.817 224.348,114.434 224.348,112.221 231.815,112.221 231.815,114.231 "
   style="fill:url(#XMLID_13_);stroke:#000000;stroke-width:0.49790001"
   id="polygon347" />
<path
   d="M 251.845,148.666 L 251.845,171.083 C 251.845,171.083 251.596,172.197 252.903,172.197 C 254.211,172.197 255.113,171.246 255.113,171.246 L 255.113,147.486 C 255.112,147.485 253.335,146.038 251.845,148.666 z "
   style="fill:#ffbf00;stroke:#000000;stroke-width:0.51090002"
   id="path349" />
<path
   d="M 242.012,148.586 L 242.012,171.544 C 242.012,171.544 241.763,172.685 243.07,172.685 C 244.378,172.685 245.28,171.712 245.28,171.712 L 245.28,147.378 C 245.279,147.377 243.502,145.895 242.012,148.586 z "
   style="fill:#ffbf00;stroke:#000000;stroke-width:0.51709998"
   id="path351" />
<path
   d="M 232.428,148.054 L 232.428,164.853 C 232.428,164.853 232.179,165.688 233.487,165.688 C 234.794,165.688 235.696,164.976 235.696,164.976 L 235.696,147.17 C 235.695,147.17 233.918,146.084 232.428,148.054 z "
   style="fill:#ffbf00;stroke:#000000;stroke-width:0.44229999"
   id="path353" />
<path
   d="M 222.969,147.911 L 222.969,165.479 C 222.969,165.479 222.72,166.352 224.027,166.352 C 225.334,166.352 226.236,165.607 226.236,165.607 L 226.236,146.986 C 226.235,146.986 224.459,145.851 222.969,147.911 z "
   style="fill:#ffbf00;stroke:#000000;stroke-width:0.45230001"
   id="path355" />
<path
   d="M 271.272,148.197 L 271.272,164.113 C 271.272,164.113 271.022,164.904 272.329,164.904 C 273.636,164.904 274.539,164.23 274.539,164.23 L 274.539,147.36 C 274.539,147.359 272.762,146.332 271.272,148.197 z "
   style="fill:#ffbf00;stroke:#000000;stroke-width:0.4305"
   id="path357" />
<path
   d="M 261.314,148.025 L 261.314,164.865 C 261.314,164.865 261.065,165.701 262.372,165.701 C 263.679,165.701 264.582,164.988 264.582,164.988 L 264.582,147.138 C 264.582,147.139 262.805,146.051 261.314,148.025 z "
   style="fill:#ffbf00;stroke:#000000;stroke-width:0.44279999"
   id="path359" />
<path
   d="M 294.118,141.293 L 289.474,138.473 C 289.474,138.473 270.901,138.473 270.886,138.473 C 270.886,138.473 270.888,141.857 270.886,142.04 C 270.883,142.924 270.722,143.706 271.16,144.462 C 271.57,145.171 272.563,145.344 272.72,146.272 C 272.918,147.439 272.213,147.854 271.584,148.624 C 270.926,149.43 270.886,149.434 270.886,150.674 C 270.888,152.485 270.886,154.297 270.886,156.108 C 270.886,158.703 270.877,161.299 270.886,163.894 C 270.893,165.64 270.744,168.186 271.223,169.833 C 271.536,170.911 272.324,171.906 272.712,172.999 C 273.364,174.839 273.073,177.126 273.043,179.086 C 273.028,180.05 272.664,181.165 272.878,182.119 C 273.039,182.841 273.57,183.228 273.711,183.94 C 274.049,185.646 272.699,185.059 271.732,185.486 C 271.012,185.804 269.932,187.997 270.885,188.591 C 270.889,188.592 275.531,191.411 275.531,191.411 L 275.531,141.293 L 294.118,141.293 L 294.118,141.293 z "
   style="opacity:0.43999999"
   id="path361" />
<polygon
   points="270.887,138.473 275.532,141.293 294.118,141.293 289.475,138.473 270.887,138.473 "
   id="polygon363" />
<path
   d="M 212.883,172.037 L 212.883,181.127 L 212.883,181.875 C 212.883,181.875 212.26,182.124 213.941,182.405 C 215.622,182.685 216.119,182.498 216.119,182.498 L 216.15,171.477 L 212.883,172.037 z "
   style="fill:#7dff00;stroke:#000000;stroke-width:0.47929999"
   id="path365" />
<path
   d="M 203.05,172.021 L 203.05,181.434 L 203.05,182.207 C 203.05,182.207 202.428,182.465 204.108,182.755 C 205.789,183.045 206.287,182.852 206.287,182.852 L 206.317,171.441 L 203.05,172.021 z "
   style="fill:#7dff00;stroke:#000000;stroke-width:0.47929999"
   id="path367" />
<path
   d="M 212.854,148.666 L 212.854,171.083 C 212.854,171.083 212.606,172.197 213.913,172.197 C 215.22,172.197 216.122,171.246 216.122,171.246 L 216.122,147.486 C 216.122,147.485 214.345,146.038 212.854,148.666 z "
   style="fill:#ffbf00;stroke:#000000;stroke-width:0.51090002"
   id="path369" />
<path
   d="M 203.022,148.586 L 203.022,171.544 C 203.022,171.544 202.773,172.685 204.08,172.685 C 205.387,172.685 206.289,171.712 206.289,171.712 L 206.289,147.378 C 206.289,147.377 204.513,145.895 203.022,148.586 z "
   style="fill:#ffbf00;stroke:#000000;stroke-width:0.51709998"
   id="path371" />
<path
   d="M 240.622,144.302 C 232.461,144.302 224.3,144.302 216.139,144.302 C 206.417,144.302 188.58,141.288 181.265,149.039 C 187.615,146.463 195.025,148.658 201.654,148.658 C 205.449,148.658 209.244,148.658 213.039,148.658 C 217.828,148.658 222.617,148.658 227.406,148.658 C 232.888,148.658 238.371,148.658 243.853,148.658 C 249.727,148.658 292.443,148.658 298.317,148.658 C 298.886,148.658 297.762,151.096 298.886,151.182 C 298.886,151.182 306.075,147.391 305.821,146.912 C 305.367,146.055 298.963,142.056 298.4,141.743 C 298.104,141.578 298.892,144.486 298.557,144.382 C 298.557,144.382 295.839,144.301 293.815,144.301 C 288.199,144.301 246.238,144.302 240.622,144.302 z "
   style="fill:#ff0000;stroke:#000000;stroke-width:0.49790001"
   id="path373" />
<polygon
   points="294.118,191.411 275.532,191.411 275.532,141.293 281.175,141.293 288.145,141.293 294.118,141.293 294.118,191.411 "
   style="fill:#ffbf00;stroke:#000000;stroke-width:0.44279999"
   id="polygon375" />
<path
   d="M 167.554,113.003 L 166.746,119.301 L 202.048,119.175 C 200.628,117.899 200.319,114.179 201.908,113.004 L 167.554,113.004 L 167.554,113.003 z "
   style="fill:#bf0000;stroke:#000000;stroke-width:0.39590001"
   id="path377" />
<path
   d="M 178.909,99.888 L 179.186,113.495 L 179.208,114.613 C 179.208,114.613 178.535,114.989 180.382,115.4 C 182.229,115.811 182.768,115.528 182.768,115.528 L 182.466,99.031 L 178.909,99.888 z "
   style="fill:#7dff00;stroke:#000000;stroke-width:0.463"
   id="path379" />
<path
   d="M 187.99,93.306 L 187.99,112.724 L 187.99,114.32 C 187.99,114.32 187.309,114.851 189.147,115.45 C 190.985,116.049 191.53,115.649 191.53,115.649 L 191.564,92.109 L 187.99,93.306 z "
   style="fill:#7dff00;stroke:#000000;stroke-width:0.53829998"
   id="path381" />
<path
   d="M 169.46,101.421 L 169.46,113.588 L 169.46,114.588 C 169.46,114.588 168.779,114.921 170.617,115.296 C 172.455,115.671 173,115.421 173,115.421 L 173.034,100.67 L 169.46,101.421 z "
   style="fill:#7dff00;stroke:#000000;stroke-width:0.42609999"
   id="path383" />
<path
   d="M 196.454,93.514 L 196.454,112.967 L 196.454,114.565 C 196.454,114.565 195.772,115.098 197.611,115.698 C 199.449,116.298 199.994,115.898 199.994,115.898 L 200.028,92.315 L 196.454,93.514 z "
   style="fill:#7dff00;stroke:#000000;stroke-width:0.5388"
   id="path385" />
<path
   d="M 110.464,112.946 C 107.238,112.917 104.009,112.897 100.775,112.897 C 99.07,112.897 97.979,112.472 97.66,114.065 C 97.41,115.31 97.854,116.741 99.018,117.185 C 100.267,117.66 102.751,117.436 104.121,117.575 C 108.477,118.018 112.931,118.383 117.311,118.554 C 122.261,118.748 127.244,118.847 132.167,119.128 C 134.979,119.288 137.766,118.662 140.562,118.764 C 142.615,118.838 144.504,119.36 146.619,119.355 C 149.426,119.348 152.234,119.342 155.041,119.335 C 157.4,119.329 160.829,119.969 163.08,119.315 C 166.264,118.391 166.035,114.32 162.932,113.144 C 160.625,112.27 156.286,113.144 153.863,113.144 C 147.367,113.144 140.872,113.144 134.375,113.144 C 126.382,113.145 118.43,113.018 110.464,112.946 z "
   style="fill:#bf0000;stroke:#000000;stroke-width:0.40810001"
   id="path387" />
<path
   d="M 139.347,93.559 L 139.706,112.747 L 139.736,114.324 C 139.736,114.324 139.065,114.85 140.915,115.441 C 142.765,116.031 143.302,115.636 143.302,115.636 L 142.9,92.374 L 139.347,93.559 z "
   style="fill:#7dff00;stroke:#000000;stroke-width:0.54979998"
   id="path389" />
<path
   d="M 149.021,93.447 L 149.021,112.864 L 149.021,114.46 C 149.021,114.46 148.34,114.992 150.179,115.59 C 152.017,116.189 152.562,115.789 152.562,115.789 L 152.596,92.249 L 149.021,93.447 z "
   style="fill:#7dff00;stroke:#000000;stroke-width:0.53829998"
   id="path391" />
<path
   d="M 129.994,94.076 L 129.994,112.713 L 129.994,114.245 C 129.994,114.245 129.313,114.755 131.152,115.329 C 132.99,115.904 133.535,115.521 133.535,115.521 L 133.569,92.928 L 129.994,94.076 z "
   style="fill:#7dff00;stroke:#000000;stroke-width:0.5273"
   id="path393" />
<path
   d="M 157.485,93.655 L 157.485,113.108 L 157.485,114.706 C 157.485,114.706 156.804,115.239 158.642,115.838 C 160.48,116.439 161.025,116.038 161.025,116.038 L 161.059,92.456 L 157.485,93.655 z "
   style="fill:#7dff00;stroke:#000000;stroke-width:0.5388"
   id="path395" />
<path
   d="M 130.292,74.228 L 130.292,94.009 C 130.292,94.009 130.043,94.992 131.35,94.992 C 132.657,94.992 133.559,94.154 133.559,94.154 L 133.559,73.186 C 133.56,73.186 131.783,71.908 130.292,74.228 z "
   style="fill:#ffbf00;stroke:#000000;stroke-width:0.47999999"
   id="path397" />
<path
   d="M 121.611,74.747 L 121.611,102.57 C 121.611,102.57 121.362,103.953 122.669,103.953 C 123.976,103.953 124.878,102.773 124.878,102.773 L 124.878,73.282 C 124.878,73.282 123.101,71.485 121.611,74.747 z "
   style="fill:#ffbf00;stroke:#000000;stroke-width:0.56919998"
   id="path399" />
<path
   d="M 112.027,74.013 L 112.027,92.812 C 112.027,92.812 111.777,93.747 113.085,93.747 C 114.393,93.747 115.294,92.95 115.294,92.95 L 115.294,73.023 C 115.294,73.023 113.518,71.809 112.027,74.013 z "
   style="fill:#ffbf00;stroke:#000000;stroke-width:0.46790001"
   id="path401" />
<path
   d="M 365.349,83.152 C 364.746,81.888 364.157,80.547 363.503,79.352 C 363.42,79.201 363.333,79.052 363.243,78.906 C 357.817,70.076 347.015,70.618 337.951,70.618 C 333.803,70.618 329.656,70.618 325.508,70.618 C 325.508,70.618 235.456,70.618 235.395,70.618 C 235.314,70.618 235.234,70.618 235.153,70.618 C 214.926,70.618 194.7,70.618 174.473,70.618 C 160.949,70.618 147.426,70.618 133.902,70.618 C 129.08,70.618 124.256,70.618 119.434,70.618 C 114.759,70.618 110.202,70.341 105.549,70.937 C 103.453,71.206 101.375,71.709 99.338,72.279 C 97.433,72.811 95.462,73.498 93.791,74.567 C 92.259,75.546 89.695,77.051 89.004,78.815 C 90.882,77.787 92.661,76.389 94.639,75.416 C 96.831,74.336 99.13,73.761 101.557,73.761 C 103.812,73.761 106.055,73.957 108.265,74.321 C 109.976,74.603 111.723,74.905 113.456,74.929 C 117.352,74.981 121.263,74.974 125.172,74.974 C 131.995,74.974 138.818,74.974 145.644,74.974 C 149.438,74.974 204.016,74.974 207.81,74.974 C 212.6,74.974 217.389,74.974 222.178,74.974 C 227.66,74.974 233.143,74.974 238.625,74.974 C 244.499,74.974 250.373,74.974 256.247,74.974 C 262.211,74.974 268.174,74.974 274.138,74.974 C 279.891,74.974 285.643,74.974 291.395,74.974 C 296.635,74.974 317.307,74.974 322.546,74.974 C 326.97,74.974 331.393,74.974 335.817,74.974 C 347.139,74.974 358.598,74.89 365.728,85.054 C 365.892,85.287 366.764,86.039 366.801,86.196 C 366.546,85.11 365.824,84.15 365.349,83.152 z "
   style="fill:#ff0000;stroke:#000000;stroke-width:0.49790001"
   id="path403" />
<path
   d="M 121.376,102.685 L 121.616,113.787 L 121.636,114.7 C 121.636,114.7 120.962,115.009 122.807,115.339 C 124.653,115.669 125.192,115.437 125.192,115.437 L 124.935,101.978 L 121.376,102.685 z "
   style="fill:#7dff00;stroke:#000000;stroke-width:0.41819999"
   id="path405" />
<path
   d="M 111.884,87.716 L 111.884,111.633 L 111.884,113.599 C 111.884,113.599 111.203,114.254 113.042,114.991 C 114.88,115.728 115.425,115.237 115.425,115.237 L 115.459,86.243 L 111.884,87.716 z "
   style="fill:#7dff00;stroke:#000000;stroke-width:0.59740001"
   id="path407" />
<linearGradient
   x1="303.41699"
   y1="57.670898"
   x2="302.9191"
   y2="92.5214"
   id="XMLID_14_"
   gradientUnits="userSpaceOnUse">
	<stop
   style="stop-color:#015353;stop-opacity:1"
   offset="0"
   id="stop410" />
	<stop
   style="stop-color:#045d5f;stop-opacity:1"
   offset="0.0672"
   id="stop412" />
	<stop
   style="stop-color:#0a7881;stop-opacity:1"
   offset="0.1901"
   id="stop414" />
	<stop
   style="stop-color:#15a3b6;stop-opacity:1"
   offset="0.3536"
   id="stop416" />
	<stop
   style="stop-color:#20d0ed;stop-opacity:1"
   offset="0.50559998"
   id="stop418" />
	<stop
   style="stop-color:#1ab9d1;stop-opacity:1"
   offset="0.58219999"
   id="stop420" />
	<stop
   style="stop-color:#0d828e;stop-opacity:1"
   offset="0.78170002"
   id="stop422" />
	<stop
   style="stop-color:#046063;stop-opacity:1"
   offset="0.92629999"
   id="stop424" />
	<stop
   style="stop-color:#015353;stop-opacity:1"
   offset="1"
   id="stop426" />
	<a:midPointStop
   offset="0"
   style="stop-color:#015353" />
	<a:midPointStop
   offset="0.573"
   style="stop-color:#015353" />
	<a:midPointStop
   offset="0.5056"
   style="stop-color:#20D0ED" />
	<a:midPointStop
   offset="0.4432"
   style="stop-color:#20D0ED" />
	<a:midPointStop
   offset="1"
   style="stop-color:#015353" />
</linearGradient>
<path
   d="M 310.051,74.67 C 310.051,79.577 309.358,84.924 306.45,89.421 C 305.289,91.218 302.597,93.387 299.674,93.515 C 297.073,93.628 295.753,91.661 296.131,89.998 C 296.402,88.812 296.621,87.906 297.218,86.82 C 298.902,83.761 298.968,80.473 299.307,77.12 C 299.717,73.067 299.466,68.868 297.883,65.073 C 296.453,61.648 295.113,55.963 300.7,55.963 C 305.864,55.964 310.051,64.339 310.051,74.67 z "
   style="fill:url(#XMLID_14_)"
   id="path428" />
<g
   id="g430">
	<path
   d="M 360.111,76.758 C 360.031,77.325 359.776,77.774 359.165,78.36 C 358.489,79.008 355.753,79.674 356.906,81.173 C 358.068,82.685 360.472,79.208 361.525,78.988 C 362.163,78.856 362.426,79.219 363.062,79.309 C 364.562,79.521 365.502,80.09 367.058,79.503 C 370.354,78.256 372.055,74.268 370.231,71.343 C 368.414,68.428 363.797,67.782 361.334,70.638 C 360.067,72.108 359.938,73.597 360.088,75.326 C 360.139,75.917 360.167,76.366 360.111,76.758 z "
   style="fill:#8210d2;stroke:#000000;stroke-width:0.49790001"
   id="path432" />
	<path
   d="M 361.581,78.064 C 362.426,77.425 363.207,76.728 364.069,76.166 C 365.386,78.24 369.151,76.224 369.808,74.406 C 369.734,78.204 364.461,80.715 361.829,78.065"
   style="fill:#521d7f"
   id="path434" />
	<path
   d="M 361.083,72.09 C 360.57,73.078 360.212,74.2 360.387,75.306 C 361.818,74.598 361.44,73.587 360.834,72.339"
   style="fill:#521d7f"
   id="path436" />
</g>
<g
   id="g438">
	<path
   d="M 345.357,71.518 C 345.727,71.955 345.894,72.443 345.925,73.289 C 345.961,74.225 344.642,76.712 346.528,76.846 C 348.43,76.981 347.428,72.875 347.964,71.941 C 348.288,71.377 348.735,71.421 349.224,71.006 C 350.379,70.027 351.43,69.7 352.024,68.148 C 353.282,64.856 351.43,60.935 348.032,60.356 C 344.646,59.779 341.097,62.8 341.596,66.539 C 341.852,68.462 342.879,69.548 344.272,70.583 C 344.746,70.938 345.101,71.215 345.357,71.518 z "
   style="fill:#8210d2;stroke:#000000;stroke-width:0.49790001"
   id="path440" />
	<path
   d="M 344.405,68.107 C 344.512,68.295 344.662,68.367 344.852,68.324 C 345.27,67.574 345.657,66.768 345.905,65.936 C 345.897,66.786 345.444,69.195 346.198,69.799 C 347.351,70.722 347.761,69.009 347.678,68.149 C 350.008,67.609 350.116,64.86 348.979,63.359 C 351.743,63.72 352.302,67.116 350.815,69.041 C 350.141,69.913 349.211,70.191 348.442,70.907 C 347.468,71.814 347.332,72.768 346.707,73.812 C 346.143,71.877 343.945,70.74 343.696,68.902 C 343.977,68.831 344.144,68.689 344.405,68.604"
   style="fill:#521d7f"
   id="path442" />
</g>
<g
   id="g444">
	<path
   d="M 333.738,70.865 C 334.144,71.267 334.353,71.741 334.457,72.581 C 334.572,73.511 333.471,76.102 335.361,76.074 C 337.267,76.046 335.919,72.04 336.372,71.064 C 336.646,70.474 337.096,70.481 337.548,70.025 C 338.615,68.95 339.633,68.535 340.092,66.938 C 341.065,63.55 338.885,59.802 335.45,59.515 C 332.026,59.229 328.748,62.543 329.564,66.226 C 329.984,68.12 331.102,69.115 332.576,70.027 C 333.081,70.34 333.457,70.585 333.738,70.865 z "
   style="fill:#8210d2;stroke:#000000;stroke-width:0.49790001"
   id="path446" />
	<path
   d="M 334.149,67.635 C 333.724,69.857 335.977,69.222 335.729,67.155 C 338.989,66.451 338.116,64.066 336.956,62.171 C 342.127,61.175 338.143,69.777 335.736,70.888 C 335.702,71.726 335.799,72.58 335.387,73.307 C 334.288,72.504 334.038,70.689 332.925,69.718 C 332.093,68.992 329.38,67.569 330.646,65.954 C 330.774,65.79 333.135,68.731 334.149,67.635 z "
   style="fill:#521d7f"
   id="path448" />
</g>
<path
   d="M 174.818,65.999 L 169.363,64.807 C 169.363,64.807 155.346,64.807 155.336,64.807 C 155.291,65.467 155.394,66.139 155.336,66.798 C 155.25,67.787 155.257,68.871 155.34,69.865 C 155.407,70.67 155.662,70.976 156.023,71.677 C 156.544,72.688 157.148,75.073 155.357,75.23 C 155.247,77.144 155.488,85 155.458,86.977 C 155.398,90.952 155.324,94.831 155.096,98.741 C 154.956,101.134 155.323,113.075 155.323,113.075 C 156.294,114.643 157.453,118.652 155.678,118.991 C 153.787,119.352 155.091,120.596 156.415,120.868 C 157.779,121.148 159.144,121.429 160.508,121.709 L 160.462,65.814 L 174.818,65.999 z "
   style="opacity:0.43999999"
   id="path450" />
<path
   d="M 116.311,118.803 C 117.061,118.846 117.807,118.889 118.542,118.928 C 121.685,119.094 124.829,118.946 127.971,118.837 C 130.563,118.748 133.14,119.331 135.612,118.494 C 134.071,117.33 130.515,118.087 128.618,117.963 C 126.596,117.831 124.581,117.825 122.538,117.763 C 118.745,117.648 115.072,117.234 111.338,116.78 C 106.691,116.214 104.181,113.86 101.823,109.855 C 99.538,105.973 98.171,101.652 96.178,97.627 C 93.047,91.3 90,83.173 84.928,78.099 C 80.945,74.116 79.118,72.457 73.476,70.963 C 73.476,70.963 70.099,71.187 67.004,70.963 C 67.004,70.963 58.998,72.111 55.347,78.916 C 55.347,78.916 61.362,72.124 66.838,73.121 C 66.838,73.121 69.908,72.706 76.215,79.013 C 81.491,84.289 85.022,91.625 88.3,98.231 C 90.829,103.327 91.908,109.102 95.066,113.894 C 98.173,118.608 103.084,118.689 108.367,118.564 C 110.939,118.501 113.656,118.651 116.311,118.803 z "
   style="fill:#ff0000;stroke:#000000;stroke-width:0.49790001"
   id="path452" />
<path
   d="M 157.408,145.889 C 157.408,145.889 160.477,145.491 166.784,151.539 C 171.819,156.368 174.742,162.775 178.259,168.685 C 181.461,174.064 183.084,178.931 188.425,182.878 C 190.988,184.773 194.035,184.868 197.032,185.425 C 199.271,185.842 202.424,187.384 204.491,185.668 C 198.795,182.011 191.659,180.904 188.362,174.19 C 186.52,170.439 185.199,166.394 183.219,162.725 C 181.058,158.719 178.831,153.861 175.497,150.663 C 171.514,146.843 169.688,145.252 164.046,143.82 C 164.046,143.82 160.669,144.034 157.573,143.82 C 157.573,143.82 149.567,144.921 145.916,151.446 C 145.917,151.446 151.932,144.934 157.408,145.889 z "
   style="fill:#ff0000;stroke:#000000;stroke-width:0.4876"
   id="path454" />









<polygon
   points="270.502,200.504 270.502,207.844 284.97,185.258 270.502,200.504 "
   id="polygon752" />

<polygon
   points="258.489,31.827 287.735,119.482 261.216,29.101 258.489,31.827 "
   id="polygon774" />

<polygon
   points="275.624,18.587 279.129,15.082 301.806,63.384 275.624,18.587 "
   id="polygon798" />
<polygon
   points="336.373,230.43 368.606,168.509 339.878,236.271 336.373,230.43 "
   id="polygon800" />
<polygon
   points="298.989,218.748 363.675,131.518 295.874,214.285 298.989,218.748 "
   id="polygon802" />
<polygon
   points="443.313,155.422 454.756,182.921 455.535,173.575 443.313,155.422 "
   id="polygon804" />
<path
   d="M 203.186,125.83 C 200.505,125.83 198.332,121.651 198.332,116.495 C 198.332,114.664 199.086,112.922 199.124,111.157 C 199.131,110.823 198.045,107.625 197.68,108.425 C 198.737,106.116 200.82,104.214 203.56,104.423 C 205.394,104.562 208.545,106.411 208.749,108.361 C 205.847,109.238 208.041,114.481 208.041,116.495 C 208.04,121.65 205.866,125.83 203.186,125.83 z "
   style="fill:#00a0c6;stroke:#000000;stroke-width:0.54979998"
   id="path806" />
<polygon
   points="174.806,121.713 160.779,121.713 160.779,65.873 165.037,65.873 170.298,65.873 174.806,65.873 174.806,121.713 "
   style="fill:#ff900b;stroke:#000000;stroke-width:0.4061"
   id="polygon808" />
<polygon
   points="149.037,44.678 165.938,83.767 147.895,48.961 149.037,44.678 "
   id="polygon810" />
<polygon
   points="213.577,133.595 217.471,137.489 257.197,116.781 213.577,133.595 "
   id="polygon812" />
<polygon
   points="187.615,40.135 205.661,119.022 190.731,38.058 187.615,40.135 "
   id="polygon814" />
<g
   id="g816">
	<path
   d="M 122.932,193.381 C 123.209,193.548 123.842,193.825 124.53,193.825 C 125.773,193.825 126.173,193.037 126.162,192.427 C 126.151,191.417 125.24,190.984 124.297,190.984 L 123.753,190.984 L 123.753,190.252 L 124.297,190.252 C 125.007,190.252 125.906,189.886 125.906,189.031 C 125.906,188.454 125.54,187.943 124.641,187.943 C 124.064,187.943 123.509,188.199 123.199,188.421 L 122.932,187.711 C 123.321,187.434 124.053,187.156 124.83,187.156 C 126.25,187.156 126.894,187.999 126.894,188.876 C 126.894,189.631 126.438,190.263 125.562,190.585 L 125.562,190.607 C 126.45,190.773 127.171,191.439 127.171,192.449 C 127.171,193.603 126.261,194.613 124.541,194.613 C 123.73,194.613 123.02,194.358 122.666,194.125 L 122.932,193.381 z "
   id="path818" />
	<path
   d="M 129.924,186.811 C 129.668,187.743 129.192,188.941 128.892,189.452 L 128.27,189.519 C 128.503,188.864 128.803,187.721 128.925,186.921 L 129.924,186.811 z "
   id="path820" />
</g>
<g
   id="g822">
	<g
   id="g824">
		<path
   d="M 127.401,145.48 L 124.649,145.48 L 124.372,147.311 C 124.539,147.289 124.694,147.267 124.96,147.267 C 125.526,147.267 126.07,147.389 126.514,147.655 C 127.08,147.966 127.546,148.598 127.546,149.53 C 127.546,150.94 126.425,151.994 124.86,151.994 C 124.072,151.994 123.417,151.771 123.062,151.55 L 123.306,150.806 C 123.606,150.984 124.194,151.206 124.86,151.206 C 125.77,151.206 126.569,150.606 126.558,149.63 C 126.558,148.675 125.925,148.021 124.494,148.021 C 124.072,148.021 123.75,148.055 123.484,148.099 L 123.95,144.659 L 127.402,144.659 L 127.402,145.48 L 127.401,145.48 z "
   id="path826" />
		<path
   d="M 130.32,144.193 C 130.065,145.125 129.588,146.324 129.288,146.834 L 128.666,146.901 C 128.899,146.246 129.199,145.103 129.321,144.304 L 130.32,144.193 z "
   id="path828" />
	</g>
</g>
<g
   id="g830">
	<path
   d="M 45.753,76.396 C 46.03,76.562 46.663,76.84 47.351,76.84 C 48.594,76.84 48.994,76.052 48.983,75.442 C 48.972,74.432 48.061,73.999 47.118,73.999 L 46.574,73.999 L 46.574,73.267 L 47.118,73.267 C 47.828,73.267 48.727,72.901 48.727,72.046 C 48.727,71.469 48.36,70.959 47.461,70.959 C 46.884,70.959 46.329,71.214 46.019,71.436 L 45.752,70.726 C 46.141,70.449 46.873,70.171 47.649,70.171 C 49.07,70.171 49.713,71.015 49.713,71.892 C 49.713,72.646 49.258,73.279 48.382,73.601 L 48.382,73.623 C 49.269,73.789 49.99,74.455 49.99,75.465 C 49.99,76.619 49.079,77.629 47.36,77.629 C 46.55,77.629 45.839,77.374 45.484,77.141 L 45.753,76.396 z "
   id="path832" />
	<path
   d="M 52.745,69.826 C 52.49,70.758 52.013,71.957 51.713,72.467 L 51.092,72.534 C 51.324,71.879 51.624,70.736 51.746,69.936 L 52.745,69.826 z "
   id="path834" />
</g>
<g
   id="g836">
	<g
   id="g838">
		<path
   d="M 53.901,120.068 L 51.149,120.068 L 50.871,121.899 C 51.038,121.877 51.194,121.855 51.46,121.855 C 52.026,121.855 52.57,121.977 53.014,122.243 C 53.58,122.554 54.046,123.186 54.046,124.118 C 54.046,125.528 52.925,126.582 51.36,126.582 C 50.571,126.582 49.917,126.36 49.562,126.138 L 49.806,125.394 C 50.106,125.572 50.694,125.793 51.36,125.793 C 52.27,125.793 53.069,125.194 53.058,124.217 C 53.058,123.262 52.425,122.608 50.993,122.608 C 50.571,122.608 50.25,122.641 49.984,122.686 L 50.449,119.246 L 53.901,119.246 L 53.901,120.068 L 53.901,120.068 z "
   id="path840" />
		<path
   d="M 56.82,118.781 C 56.565,119.713 56.088,120.911 55.788,121.422 L 55.167,121.489 C 55.399,120.834 55.699,119.691 55.821,118.891 L 56.82,118.781 z "
   id="path842" />
	</g>
</g>
<g
   id="g844">
	<path
   d="M 527.097,109.318 C 527.374,109.484 528.007,109.762 528.696,109.762 C 529.938,109.762 530.339,108.974 530.328,108.364 C 530.316,107.354 529.406,106.921 528.463,106.921 L 527.919,106.921 L 527.919,106.189 L 528.463,106.189 C 529.174,106.189 530.072,105.823 530.072,104.968 C 530.072,104.391 529.706,103.881 528.806,103.881 C 528.23,103.881 527.674,104.136 527.364,104.358 L 527.097,103.648 C 527.486,103.371 528.218,103.093 528.994,103.093 C 530.415,103.093 531.058,103.936 531.058,104.813 C 531.058,105.568 530.603,106.201 529.727,106.522 L 529.727,106.544 C 530.615,106.711 531.335,107.377 531.335,108.386 C 531.335,109.54 530.425,110.551 528.705,110.551 C 527.895,110.551 527.184,110.296 526.83,110.063 L 527.097,109.318 z "
   id="path846" />
	<path
   d="M 534.089,102.748 C 533.833,103.68 533.357,104.879 533.057,105.389 L 532.436,105.456 C 532.668,104.801 532.968,103.658 533.09,102.859 L 534.089,102.748 z "
   id="path848" />
</g>
<g
   id="g850">
	<g
   id="g852">
		<path
   d="M 526.854,147.254 L 524.102,147.254 L 523.824,149.085 C 523.991,149.063 524.146,149.041 524.413,149.041 C 524.978,149.041 525.523,149.163 525.967,149.429 C 526.532,149.74 526.999,150.372 526.999,151.305 C 526.999,152.714 525.878,153.769 524.313,153.769 C 523.524,153.769 522.87,153.547 522.514,153.325 L 522.758,152.581 C 523.058,152.759 523.646,152.981 524.313,152.981 C 525.223,152.981 526.022,152.381 526.011,151.405 C 526.011,150.45 525.378,149.796 523.946,149.796 C 523.524,149.796 523.203,149.83 522.937,149.874 L 523.402,146.434 L 526.854,146.434 L 526.854,147.254 z "
   id="path854" />
		<path
   d="M 529.773,145.967 C 529.517,146.899 529.041,148.098 528.741,148.608 L 528.12,148.675 C 528.352,148.02 528.652,146.877 528.773,146.078 L 529.773,145.967 z "
   id="path856" />
	</g>
</g>
<text
   x="214.67555"
   y="14.727951"
   style="font-size:10px;font-style:normal;font-variant:normal;font-weight:normal;font-stretch:normal;text-align:start;line-height:125%;writing-mode:lr-tb;text-anchor:start;fill:#000000;fill-opacity:1;stroke:none;font-family:Helvetica"
   id="text3021"
   xml:space="preserve"
   sodipodi:linespacing="125%"><tspan
     x="214.67555"
     y="14.727951"
     id="tspan3023">ADN primase</tspan></text>




<text
   x="218.15224"
   y="30.162144"
   style="font-size:10px;font-style:normal;font-variant:normal;font-weight:normal;font-stretch:normal;text-align:start;line-height:125%;writing-mode:lr-tb;text-anchor:start;fill:#000000;fill-opacity:1;stroke:none;stroke-width:1px;stroke-linecap:butt;stroke-linejoin:miter;stroke-opacity:1;font-family:Helvetica"
   id="text3025"
   xml:space="preserve"><tspan
     x="218.15224"
     y="30.162144"
     id="tspan3027">Cebador</tspan></text>




<text
   x="144.41548"
   y="32.266808"
   style="font-size:10px;font-style:normal;font-variant:normal;font-weight:normal;font-stretch:normal;text-align:start;line-height:125%;writing-mode:lr-tb;text-anchor:start;fill:#000000;fill-opacity:1;stroke:none;font-family:Helvetica"
   id="text3029"
   xml:space="preserve"
   sodipodi:linespacing="125%"><tspan
     x="144.41548"
     y="32.266808"
     id="tspan3031">ADN ligase</tspan></text>




<text
   x="41.391689"
   y="46.297886"
   style="font-size:10px;font-style:normal;font-variant:normal;font-weight:normal;font-stretch:normal;text-align:start;line-height:125%;writing-mode:lr-tb;text-anchor:start;fill:#000000;fill-opacity:1;stroke:none;font-family:Helvetica"
   id="text3033"
   xml:space="preserve"
   sodipodi:linespacing="125%"><tspan
     x="41.391689"
     y="46.297886"
     id="tspan3035">ADN polimerase (Pol)</tspan></text>




<text
   x="114.48906"
   y="138.20148"
   style="font-size:10px;font-style:normal;font-variant:normal;font-weight:normal;font-stretch:normal;text-align:start;line-height:125%;writing-mode:lr-tb;text-anchor:start;fill:#000000;fill-opacity:1;stroke:none;stroke-width:1px;stroke-linecap:butt;stroke-linejoin:miter;stroke-opacity:1;font-family:Helvetica"
   id="text3037"
   xml:space="preserve"><tspan
     x="114.48906"
     y="138.20148"
     id="tspan3039">fragmento de Okazaki</tspan></text>




<text
   x="162.76056"
   y="207.65533"
   style="font-size:10px;font-style:normal;font-variant:normal;font-weight:normal;font-stretch:normal;text-align:start;line-height:125%;writing-mode:lr-tb;text-anchor:start;fill:#000000;fill-opacity:1;stroke:none;font-family:Helvetica"
   id="text3041"
   xml:space="preserve"
   sodipodi:linespacing="125%"><tspan
     x="162.76056"
     y="207.65533"
     id="tspan3043">ADN polimerase (Pol)</tspan></text>




<text
   x="254.66414"
   y="220.98486"
   style="font-size:10px;font-style:normal;font-variant:normal;font-weight:normal;font-stretch:normal;text-align:start;line-height:125%;writing-mode:lr-tb;text-anchor:start;fill:#000000;fill-opacity:1;stroke:none;font-family:Helvetica"
   id="text3045"
   xml:space="preserve"
   sodipodi:linespacing="125%"><tspan
     x="254.66414"
     y="220.98486"
     id="tspan3047">Helicase</tspan></text>








<text
   x="458.81638"
   y="185.2056"
   style="font-size:10px;font-style:normal;font-variant:normal;font-weight:normal;font-stretch:normal;text-align:start;line-height:125%;writing-mode:lr-tb;text-anchor:start;fill:#000000;fill-opacity:1;stroke:none;font-family:Helvetica"
   id="text3055"
   xml:space="preserve"
   sodipodi:linespacing="125%"><tspan
     x="458.81638"
     y="185.2056"
     id="tspan3057">Topoisomerase</tspan></text>




<text
   x="54.616554"
   y="96.705124"
   style="font-size:12.00000095px;font-style:normal;font-variant:normal;font-weight:bold;font-stretch:normal;text-align:end;line-height:125%;writing-mode:lr-tb;text-anchor:end;fill:#8f0000;fill-opacity:1;stroke:none;font-family:Helvetica"
   id="text3059"
   xml:space="preserve"
   sodipodi:linespacing="125%" />








<text
   xml:space="preserve"
   style="font-size:16px;font-style:normal;font-variant:normal;font-weight:normal;font-stretch:normal;line-height:125%;letter-spacing:0px;word-spacing:0px;fill:#000000;fill-opacity:1;stroke:none;font-family:Arial;-inkscape-font-specification:Arial"
   x="7.6306438"
   y="93.008232"
   id="text3567"
   sodipodi:linespacing="125%"><tspan
     sodipodi:role="line"
     id="tspan3569"
     x="7.6306438"
     y="93.008232"
     style="font-size:12.00000095px;fill:#d45500">Cadea</tspan><tspan
     sodipodi:role="line"
     x="7.6306438"
     y="108.00823"
     id="tspan3571"
     style="font-size:12.00000095px;fill:#d45500">atrasada</tspan></text>
<text
   xml:space="preserve"
   style="font-size:16px;font-style:normal;font-variant:normal;font-weight:normal;font-stretch:normal;line-height:125%;letter-spacing:0px;word-spacing:0px;fill:#000000;fill-opacity:1;stroke:none;font-family:Arial;-inkscape-font-specification:Arial"
   x="80.698273"
   y="163.83023"
   id="text3567-1"
   sodipodi:linespacing="125%"><tspan
     sodipodi:role="line"
     id="tspan3569-7"
     x="80.698273"
     y="163.83023"
     style="font-size:12.00000191px;fill:#d45500">Cadea</tspan><tspan
     sodipodi:role="line"
     x="80.698273"
     y="178.83023"
     id="tspan3571-4"
     style="font-size:12.00000191px;fill:#d45500">lder</tspan></text>
<text
   xml:space="preserve"
   style="font-size:16px;font-style:normal;font-variant:normal;font-weight:normal;font-stretch:normal;line-height:125%;letter-spacing:0px;word-spacing:0px;fill:#000000;fill-opacity:1;stroke:none;font-family:Arial;-inkscape-font-specification:Arial"
   x="240.64644"
   y="238.88219"
   id="text3597"
   sodipodi:linespacing="125%"><tspan
     sodipodi:role="line"
     id="tspan3599"
     x="240.64644"
     y="238.88219"
     style="font-size:11.00000095px">Protenas de unin</tspan><tspan
     sodipodi:role="line"
     x="240.64644"
     y="252.63219"
     id="tspan3601"
     style="font-size:11.00000095px"> cadeda simple (ssb)</tspan></text>
</svg>